<svg id="Board--inject-12" xmlns="http://www.w3.org/2000/svg" width="293.156" height="358.091" viewBox="0 0 293.156 358.091">
  <path id="Path_2611" data-name="Path 2611" d="M440.587,310.955H168.734a5.032,5.032,0,0,1-5.032-5.321l9.183-166.672a5.711,5.711,0,0,1,5.623-5.321H450.362a5.032,5.032,0,0,1,5.032,5.321l-9.158,166.672A5.686,5.686,0,0,1,440.587,310.955Z" transform="translate(-162.247 -125.802)" fill="#263238"/>
  <path id="Path_2612" data-name="Path 2612" d="M301.382,163.59H275.1a14.945,14.945,0,0,1-15.1-15.914l.264-4.856a16.53,16.53,0,0,1,16.279-15.41h26.267a14.958,14.958,0,0,1,15.1,15.914l-.264,4.856a16.555,16.555,0,0,1-16.266,15.411Z" transform="translate(-137.406 -127.409)" fill="#263238"/>
  <path id="Path_2613" data-name="Path 2613" d="M318.391,484.739h-8.416L286.79,130.36h8.429Z" transform="translate(-130.488 -126.648)" fill="#263238"/>
  <path id="Path_2614" data-name="Path 2614" d="M261.67,484.739H270.1L293.271,130.36h-8.416Z" transform="translate(-136.969 -126.648)" fill="#263238"/>
  <path id="Path_2615" data-name="Path 2615" d="M439.438,310.955H167.584a5.032,5.032,0,0,1-5.032-5.321L171.7,138.961a5.711,5.711,0,0,1,5.623-5.321H449.174a5.032,5.032,0,0,1,5.032,5.321l-9.158,166.672A5.686,5.686,0,0,1,439.438,310.955Z" transform="translate(-162.543 -125.802)" fill="#407bff"/>
  <path id="Path_2616" data-name="Path 2616" d="M170.827,304.8a3.988,3.988,0,0,1-4.026-4.252l8.718-158.6A4.541,4.541,0,0,1,180,137.7H443.813a3.988,3.988,0,0,1,4.026,4.252l-8.718,158.6a4.541,4.541,0,0,1-4.491,4.252Z" transform="translate(-161.447 -124.754)" fill="#263238" opacity="0.4"/>
  <path id="Path_2617" data-name="Path 2617" d="M434,219.363H354.558a3.384,3.384,0,0,1-3.422-3.61l3.963-72.2a.491.491,0,0,0-.478-.516.554.554,0,0,0-.541.516l-3.963,72.2a3.875,3.875,0,0,1-3.774,3.61h-82.55a3.384,3.384,0,0,1-3.422-3.61l3.963-72.2a.491.491,0,0,0-.478-.516.554.554,0,0,0-.541.516l-3.963,72.2a3.875,3.875,0,0,1-3.774,3.61H176.111a.541.541,0,0,0-.541.516.478.478,0,0,0,.478.5h79.4A3.4,3.4,0,0,1,258.875,224l-3.963,72.184a.466.466,0,0,0,.478.516.553.553,0,0,0,.541-.516L259.894,224a3.862,3.862,0,0,1,3.774-3.623H346.18A3.4,3.4,0,0,1,349.715,224l-3.963,72.184a.465.465,0,0,0,.478.516.554.554,0,0,0,.541-.516L350.734,224a3.862,3.862,0,0,1,3.774-3.623h79.4a.553.553,0,0,0,.541-.5.478.478,0,0,0-.453-.516Z" transform="translate(-159.183 -123.376)" fill="#fff" opacity="0.1"/>
  <path id="Path_2618" data-name="Path 2618" d="M284.957,153.44h-31.89l-1.786,32.444,31.853.855Z" transform="translate(-139.649 -120.693)" fill="#263238" opacity="0.4"/>
  <path id="Path_2619" data-name="Path 2619" d="M281.876,185.908l-32.016-1.56a281.189,281.189,0,0,0,3.334-33.1l32.192,1.56A281.356,281.356,0,0,1,281.876,185.908Z" transform="translate(-140.016 -121.258)" fill="#fff"/>
  <path id="Path_2620" data-name="Path 2620" d="M315.171,170.67l-31.941,2.441.7,32.331,31.953-1.585Z" transform="translate(-131.406 -116.248)" fill="#263238" opacity="0.4"/>
  <path id="Path_2621" data-name="Path 2621" d="M314.41,202.846l-32.18.893a277.75,277.75,0,0,0,.805-33.111l32.356-.918a278.238,278.238,0,0,1-.981,33.136Z" transform="translate(-131.664 -116.496)" fill="#407bff"/>
  <path id="Path_2622" data-name="Path 2622" d="M247.641,218.019l-58.874-2.239-5.3,52.37,58.749,3.623Z" transform="translate(-157.144 -104.61)" fill="#263238" opacity="0.4"/>
  <path id="Path_2623" data-name="Path 2623" d="M239.925,270.332,181,265.539a402.345,402.345,0,0,0,8.177-53.339l59.277,4.78A399.342,399.342,0,0,1,239.925,270.332Z" transform="translate(-157.782 -105.533)" fill="#fff"/>
  <g id="Group_834" data-name="Group 834" transform="translate(24.369 33.439)" opacity="0.3">
    <path id="Path_2624" data-name="Path 2624" d="M186.956,160.63h0a3.132,3.132,0,0,1-3.145-3.321h0a3.573,3.573,0,0,1,3.51-3.309h0a3.12,3.12,0,0,1,3.132,3.321h0a3.56,3.56,0,0,1-3.5,3.309Z" transform="translate(-181.427 -153.987)" fill="#263238"/>
    <path id="Path_2625" data-name="Path 2625" d="M236.681,160.632H195.834a3.12,3.12,0,0,1-3.132-3.321h0a3.548,3.548,0,0,1,3.5-3.321h40.91a3.132,3.132,0,0,1,3.145,3.321h0a3.573,3.573,0,0,1-3.573,3.321Z" transform="translate(-179.134 -153.99)" fill="#263238" opacity="0.8"/>
    <path id="Path_2626" data-name="Path 2626" d="M186.326,172.142h0a3.12,3.12,0,0,1-3.145-3.321h0a3.56,3.56,0,0,1,3.548-3.321h0a3.12,3.12,0,0,1,3.132,3.321h0a3.56,3.56,0,0,1-3.535,3.321Z" transform="translate(-181.59 -151.02)" fill="#263238"/>
    <path id="Path_2627" data-name="Path 2627" d="M243.287,172.142H195.206a3.132,3.132,0,0,1-3.145-3.321h0a3.573,3.573,0,0,1,3.51-3.321h48.081a3.132,3.132,0,0,1,3.145,3.321h0A3.573,3.573,0,0,1,243.287,172.142Z" transform="translate(-179.299 -151.02)" fill="#263238" opacity="0.8"/>
    <path id="Path_2628" data-name="Path 2628" d="M185.644,183.64h0a3.107,3.107,0,0,1-3.132-3.309h0a3.548,3.548,0,0,1,3.5-3.321h0a3.12,3.12,0,0,1,3.145,3.321h0a3.56,3.56,0,0,1-3.51,3.309Z" transform="translate(-181.763 -148.051)" fill="#263238"/>
    <path id="Path_2629" data-name="Path 2629" d="M217.975,183.64H194.564a3.107,3.107,0,0,1-3.132-3.309h0a3.548,3.548,0,0,1,3.5-3.321H218.34a3.107,3.107,0,0,1,3.132,3.321h0a3.548,3.548,0,0,1-3.5,3.309Z" transform="translate(-179.461 -148.051)" fill="#263238" opacity="0.8"/>
    <path id="Path_2630" data-name="Path 2630" d="M235.205,195.152H211.794a3.12,3.12,0,0,1-3.132-3.321h0a3.56,3.56,0,0,1,3.5-3.321H235.57a3.12,3.12,0,0,1,3.132,3.321h0A3.56,3.56,0,0,1,235.205,195.152Z" transform="translate(-175.016 -145.084)" fill="#263238" opacity="0.8"/>
    <path id="Path_2631" data-name="Path 2631" d="M185.054,195.152h0a3.12,3.12,0,0,1-3.132-3.321h0a3.56,3.56,0,0,1,3.5-3.321h0a3.12,3.12,0,0,1,3.132,3.321h0a3.56,3.56,0,0,1-3.5,3.321Z" transform="translate(-181.915 -145.084)" fill="#263238"/>
    <path id="Path_2632" data-name="Path 2632" d="M204.74,195.152H193.934a3.12,3.12,0,0,1-3.132-3.321h0a3.56,3.56,0,0,1,3.5-3.321H205.1a3.12,3.12,0,0,1,3.145,3.321h0A3.56,3.56,0,0,1,204.74,195.152Z" transform="translate(-179.624 -145.084)" fill="#263238" opacity="0.8"/>
  </g>
  <path id="Path_2633" data-name="Path 2633" d="M268.835,228.03H253l-2.176,39.64h15.838Z" transform="translate(-139.768 -101.449)" fill="#407bff"/>
  <path id="Path_2634" data-name="Path 2634" d="M287.854,234.53H272l-1.723,31.463h15.838Z" transform="translate(-134.747 -99.772)" fill="#407bff"/>
  <path id="Path_2635" data-name="Path 2635" d="M308.459,217.75H292.621l-2.881,52.572h15.838Z" transform="translate(-129.727 -104.101)" fill="#407bff"/>
  <path id="Path_2636" data-name="Path 2636" d="M258.425,252.257c-1.573,0-3.158,0-4.755-.126a26.933,26.933,0,0,1-9.586-1.937,1.032,1.032,0,0,1-.516-1.359,1.019,1.019,0,0,1,1.359-.5,25.158,25.158,0,0,0,8.806,1.761c19.008.981,35.652-3.975,52.408-15.574a58.646,58.646,0,0,0,13.624-13.209,1.019,1.019,0,1,1,1.673,1.157,59.126,59.126,0,0,1-14.1,13.674C291.611,247.1,275.949,252.257,258.425,252.257Z" transform="translate(-141.662 -103.309)" fill="#fff"/>
  <path id="Path_2637" data-name="Path 2637" d="M310.262,230.52a1.019,1.019,0,0,1-.943-1.409A18,18,0,0,0,310.2,218.1a68.572,68.572,0,0,1-12.655,6.718,1.019,1.019,0,1,1-.767-1.887,66.787,66.787,0,0,0,13.423-7.309,1.032,1.032,0,0,1,1.547.516,19.864,19.864,0,0,1-.541,13.75A1.019,1.019,0,0,1,310.262,230.52Z" transform="translate(-128.082 -104.694)" fill="#fff"/>
  <path id="Path_2638" data-name="Path 2638" d="M386.487,208.119H327.562a3.535,3.535,0,0,1-3.56-3.774l2.742-49.817a3.963,3.963,0,0,1,3.9-3.7h58.937a3.535,3.535,0,0,1,3.548,3.774l-2.742,49.817a3.963,3.963,0,0,1-3.9,3.7Zm-55.843-56.258a2.919,2.919,0,0,0-2.881,2.742l-2.742,49.817a2.516,2.516,0,0,0,2.516,2.68h58.925a2.919,2.919,0,0,0,2.881-2.742l2.742-49.817a2.5,2.5,0,0,0-2.529-2.68Z" transform="translate(-120.889 -121.367)" fill="#407bff"/>
  <path id="Path_2639" data-name="Path 2639" d="M391.605,162.41H326.189a.516.516,0,0,1,0-1.019h65.416a.516.516,0,1,1,0,1.019Z" transform="translate(-120.435 -118.644)" fill="#407bff"/>
  <path id="Path_2640" data-name="Path 2640" d="M336.638,205.4h0a.516.516,0,0,1-.478-.541l2.315-42.986a.5.5,0,0,1,.541-.478.516.516,0,0,1,.478.541l-2.352,43A.516.516,0,0,1,336.638,205.4Z" transform="translate(-117.75 -118.642)" fill="#407bff"/>
  <path id="Path_2641" data-name="Path 2641" d="M379.517,166.47H344.029a.516.516,0,0,1,0-1.019h35.488a.516.516,0,1,1,0,1.019Z" transform="translate(-115.832 -117.596)" fill="#407bff"/>
  <path id="Path_2642" data-name="Path 2642" d="M374.274,171.45H343.792a.516.516,0,1,1,0-1.019h30.481a.516.516,0,1,1,0,1.019Z" transform="translate(-115.935 -116.311)" fill="#407bff"/>
  <path id="Path_2643" data-name="Path 2643" d="M361.25,176.59H343.512a.516.516,0,1,1,0-1.019H361.25a.516.516,0,1,1,0,1.019Z" transform="translate(-116.007 -114.985)" fill="#407bff"/>
  <path id="Path_2644" data-name="Path 2644" d="M364.612,186.63h-21.65a.516.516,0,1,1,0-1.019h21.65a.516.516,0,1,1,0,1.019Z" transform="translate(-116.149 -112.395)" fill="#407bff"/>
  <path id="Path_2645" data-name="Path 2645" d="M360.39,191.769h-17.75a.516.516,0,0,1,0-1.019h17.75a.516.516,0,0,1,0,1.019Z" transform="translate(-116.191 -111.067)" fill="#407bff"/>
  <path id="Path_2646" data-name="Path 2646" d="M366.2,191.77h-5.674a.516.516,0,1,1,0-1.019H366.2a.516.516,0,1,1,0,1.019Z" transform="translate(-111.619 -111.069)" fill="#407bff"/>
  <path id="Path_2647" data-name="Path 2647" d="M376.452,181.582H343.216a.516.516,0,0,1,0-1.032h33.236a.516.516,0,1,1,0,1.032Z" transform="translate(-116.063 -113.699)" fill="#407bff"/>
  <path id="Path_2648" data-name="Path 2648" d="M349.624,264.042c-7.7,0-14-2.277-17.914-6.5-4.189-4.516-5.925-11.624-4.768-19.5a23.537,23.537,0,0,1,15.033-19.776,36,36,0,0,1,30.481.4c4.139,2.076,6.73,4.7,7.712,7.812a1.023,1.023,0,0,1-1.95.616c-.805-2.516-3.057-4.78-6.68-6.6a33.966,33.966,0,0,0-28.733-.365,21.537,21.537,0,0,0-13.838,18.216c-1.069,7.259.478,13.75,4.239,17.8,5.221,5.648,13.838,6.051,18.568,5.8,8.73-.491,16.228-3.535,21.134-8.58,5.737-5.913,7.347-14.744,3.774-20.556a6.441,6.441,0,0,0-4.416-3.271,1.019,1.019,0,0,1,.2-2.025,8.177,8.177,0,0,1,5.95,4.214c4.076,6.592,2.352,16.492-4.013,23.059-5.271,5.422-13.247,8.68-22.493,9.2C351.121,264.042,350.366,264.042,349.624,264.042Z" transform="translate(-120.219 -104.791)" fill="#fff"/>
</svg>
