<svg id="Character--inject-12" xmlns="http://www.w3.org/2000/svg" width="183.629" height="381.384" viewBox="0 0 183.629 381.384">
  <path id="Path_2649" data-name="Path 2649" d="M143.316,170.849l-3.636,6.29-3.548,6.454c-2.34,4.315-4.579,8.668-6.617,13.033-1.019,2.2-1.988,4.378-2.868,6.567l-.164.4v.088a1.008,1.008,0,0,0-.113.176,3.329,3.329,0,0,0-.176.365,2.629,2.629,0,0,0,.151,1.409,14,14,0,0,0,3.032,4.592,54.089,54.089,0,0,0,4.919,4.655l-2.956,6.29a30.818,30.818,0,0,1-4.063-1.434,33.463,33.463,0,0,1-3.774-1.962,21.94,21.94,0,0,1-7.1-6.579,14.668,14.668,0,0,1-2.214-5.736,12.982,12.982,0,0,1,0-3.422,10.329,10.329,0,0,1,.289-1.673l.2-.818.151-.5c.818-2.516,1.648-5.12,2.629-7.548,1.912-4.931,4.076-9.712,6.416-14.354,1.183-2.315,2.39-4.617,3.673-6.881s2.516-4.478,4.026-6.768Z" transform="translate(-90.569 -100.074)" fill="#ffc3bd"/>
  <path id="Path_2650" data-name="Path 2650" d="M127.876,204.153l6.6-1.723.377,10.668s-5.17.767-8.328-2.39Z" transform="translate(-87.357 -90.028)" fill="#ffc3bd"/>
  <path id="Path_2651" data-name="Path 2651" d="M142.222,201l-1.5,9.372-7.5,3.095L132.85,202.8Z" transform="translate(-85.727 -90.397)" fill="#ffc3bd"/>
  <path id="Path_2652" data-name="Path 2652" d="M162,129.67c.151.73.654,1.258,1.132,1.145s.755-.767.6-1.5-.654-1.258-1.132-1.145S161.9,128.941,162,129.67Z" transform="translate(-78.211 -109.19)" fill="#263238"/>
  <path id="Path_2653" data-name="Path 2653" d="M162.5,130.36a26.683,26.683,0,0,0,4.755,5.535,4.252,4.252,0,0,1-3.346,1.359Z" transform="translate(-78.077 -108.622)" fill="#ed847e"/>
  <path id="Path_2654" data-name="Path 2654" d="M159.336,127.025a.432.432,0,0,1-.289-.742,4.353,4.353,0,0,1,3.774-1.447.428.428,0,0,1,.352.5.44.44,0,0,1-.5.365h0a3.472,3.472,0,0,0-2.931,1.17.428.428,0,0,1-.4.151Z" transform="translate(-79.002 -110.055)" fill="#263238"/>
  <path id="Path_2655" data-name="Path 2655" d="M145.916,137.52c1.333,6.768,2.654,19.159-2.076,23.663,0,0,1.849,6.856,14.4,6.856,13.838,0,6.6-6.856,6.6-6.856-7.548-1.8-7.347-7.384-6.026-12.643Z" transform="translate(-82.891 -106.774)" fill="#ffc3bd"/>
  <path id="Path_2656" data-name="Path 2656" d="M141.911,158.565c-1.006-1.874-2.126-4.026.176-4.7,2.516-.742,18.795-2.113,23.575-.717-1.472,2.6,1.006,5.812,1.006,5.812Z" transform="translate(-83.693 -102.899)" fill="#263238"/>
  <path id="Path_2657" data-name="Path 2657" d="M109.638,408.281a2.994,2.994,0,0,0,2.3-.126.893.893,0,0,0,.214-1.019,1.019,1.019,0,0,0-.566-.642c-1.258-.591-4.114.579-4.239.629a.2.2,0,0,0-.138.189.226.226,0,0,0,.126.2,11.54,11.54,0,0,0,2.3.767Zm1.5-1.472a1.329,1.329,0,0,1,.264.076.6.6,0,0,1,.327.377c.126.4,0,.516-.075.566-.491.415-2.34,0-3.636-.491A7.132,7.132,0,0,1,111.135,406.809Z" transform="translate(-92.342 -37.422)" fill="#407bff"/>
  <path id="Path_2658" data-name="Path 2658" d="M107.389,408.053h.1c1.044-.3,3.283-1.887,3.309-2.931a.717.717,0,0,0-.554-.717,1.183,1.183,0,0,0-.969.075c-1.258.642-2.025,3.2-2.051,3.309a.226.226,0,0,0,0,.214Zm2.617-3.271h.088c.277.1.277.226.277.289,0,.616-1.5,1.862-2.516,2.365a5.372,5.372,0,0,1,1.686-2.6.779.779,0,0,1,.465-.05Z" transform="translate(-92.345 -37.936)" fill="#407bff"/>
  <path id="Path_2659" data-name="Path 2659" d="M163.993,409.566c1.183,0,2.327-.164,2.717-.692a.843.843,0,0,0,0-.956,1.094,1.094,0,0,0-.692-.516c-1.535-.415-4.768,1.422-4.906,1.51a.2.2,0,0,0-.1.226.214.214,0,0,0,.164.176,16.892,16.892,0,0,0,2.818.252Zm1.459-1.786a1.533,1.533,0,0,1,.428,0,.641.641,0,0,1,.428.3c.151.277.1.415,0,.491-.428.591-2.768.6-4.478.365a9.838,9.838,0,0,1,3.623-1.157Z" transform="translate(-78.463 -37.161)" fill="#407bff"/>
  <path id="Path_2660" data-name="Path 2660" d="M161.214,409.766h.088c1.12-.5,3.321-2.516,3.158-3.548,0-.252-.214-.553-.818-.616a1.674,1.674,0,0,0-1.258.377c-1.17.969-1.422,3.459-1.434,3.56a.264.264,0,0,0,.1.2A.214.214,0,0,0,161.214,409.766Zm2.252-3.774h.126c.4,0,.428.189.428.239.1.629-1.4,2.2-2.516,2.881a5.032,5.032,0,0,1,1.258-2.843,1.158,1.158,0,0,1,.767-.252Z" transform="translate(-78.477 -37.612)" fill="#407bff"/>
  <path id="Path_2661" data-name="Path 2661" d="M153.08,413.131h9.246l.918-21.411H154Z" transform="translate(-80.507 -41.191)" fill="#ffc3bd"/>
  <path id="Path_2662" data-name="Path 2662" d="M99.16,409.429l9.032,1.95,9.07-19.927-9.032-1.962Z" transform="translate(-94.419 -41.766)" fill="#ffc3bd"/>
  <path id="Path_2663" data-name="Path 2663" d="M110,406.625l-10.064-2.2a.805.805,0,0,0-.893.453l-3.522,7.649a1.346,1.346,0,0,0,.969,1.887c3.56.7,5.321.868,9.787,1.837,2.742.591,8.944,2.1,12.731,2.931s5.032-2.831,3.623-3.5c-6.63-3.032-9.4-5.7-11.2-8.19A2.264,2.264,0,0,0,110,406.625Z" transform="translate(-95.391 -37.918)" fill="#263238"/>
  <path id="Path_2664" data-name="Path 2664" d="M162.985,407.89H152.921a.793.793,0,0,0-.78.629l-1.824,8.215a1.333,1.333,0,0,0,1.321,1.635c3.648,0,8.907-.264,13.486-.264,5.346,0,9.963.289,16.241.289,3.774,0,4.856-3.837,3.258-4.189-7.221-1.572-13.134-1.749-19.373-5.6A4.328,4.328,0,0,0,162.985,407.89Z" transform="translate(-81.229 -37.019)" fill="#263238"/>
  <path id="Path_2665" data-name="Path 2665" d="M133.92,158.051c-8.655,1.988-15.8,24.1-15.8,24.1L135.581,195.4a38.041,38.041,0,0,0,9.221-17.084C147.721,166.732,142.777,156.013,133.92,158.051Z" transform="translate(-89.527 -101.542)" fill="#407bff"/>
  <path id="Path_2666" data-name="Path 2666" d="M133.92,158.051c-8.655,1.988-15.8,24.1-15.8,24.1L135.581,195.4a38.041,38.041,0,0,0,9.221-17.084C147.721,166.732,142.777,156.013,133.92,158.051Z" transform="translate(-89.527 -101.542)" fill="#fafafa" opacity="0.2"/>
  <path id="Path_2667" data-name="Path 2667" d="M137.935,170.92c-4.7,4.655-6.29,13.134-6.6,20.505l.767.591a37.991,37.991,0,0,0,9.234-17.084c.176-.692.327-1.384.453-2.063Z" transform="translate(-86.119 -98.157)" opacity="0.2"/>
  <path id="Path_2668" data-name="Path 2668" d="M182.454,158.958s9.838,11.108.541,79.883h-49.4c-.34-7.548,4.428-44.609-2.893-80.361a129.4,129.4,0,0,1,16.555-2.088,182.748,182.748,0,0,1,21.009,0,92.46,92.46,0,0,1,14.19,2.566Z" transform="translate(-86.282 -101.983)" fill="#407bff"/>
  <path id="Path_2669" data-name="Path 2669" d="M182.454,158.958s9.838,11.108.541,79.883h-49.4c-.34-7.548,4.428-44.609-2.893-80.361a129.4,129.4,0,0,1,16.555-2.088,182.748,182.748,0,0,1,21.009,0,92.46,92.46,0,0,1,14.19,2.566Z" transform="translate(-86.282 -101.983)" fill="#fafafa" opacity="0.2"/>
  <path id="Path_2670" data-name="Path 2670" d="M177.62,175.114l-.189-.164L166.2,177.642c-.642,7.548,7.171,16.681,11.2,20.832a215.7,215.7,0,0,0,.226-23.361Z" transform="translate(-77.133 -97.118)" opacity="0.2"/>
  <path id="Path_2671" data-name="Path 2671" d="M163.154,391.73l-.478,11.033H153.43l.478-11.033Z" transform="translate(-80.417 -41.188)" opacity="0.2"/>
  <path id="Path_2672" data-name="Path 2672" d="M107.32,389.49l9.045,1.962-4.68,10.278-9.045-1.962Z" transform="translate(-93.521 -41.766)" opacity="0.2"/>
  <path id="Path_2673" data-name="Path 2673" d="M142.516,135.32c2.365,8.869,3.309,14.165,8.806,17.851,8.215,5.548,18.455-.818,18.782-10.2.289-8.454-3.648-21.524-13.159-23.311a12.5,12.5,0,0,0-14.429,15.662Z" transform="translate(-83.354 -111.443)" fill="#ffc3bd"/>
  <path id="Path_2674" data-name="Path 2674" d="M148.635,151.283c3.774,2.151,17.5-5.032,14.681-15.977,0,0,5.233-6.29,4.642-13.234s-5.359-9.586-10.429-8.089c-4.466,1.258-4.34,3.774-4.34,3.774s-21.122,2.516-16.606,11.083C127.979,138.187,143.93,148.591,148.635,151.283Z" transform="translate(-85.41 -112.952)" fill="#263238"/>
  <path id="Path_2675" data-name="Path 2675" d="M137.809,126.795s-2.516-4.353-6.189-1.912C133.356,124.908,136.174,125.222,137.809,126.795Z" transform="translate(-86.044 -110.227)" fill="#263238"/>
  <path id="Path_2676" data-name="Path 2676" d="M160.986,126.817s4.6-10.391-2.516-13.737A17.763,17.763,0,0,1,160.986,126.817Z" transform="translate(-79.117 -113.08)" fill="#263238"/>
  <path id="Path_2677" data-name="Path 2677" d="M154.433,133.26a10.328,10.328,0,0,0,3.774,5.51c2.4,1.786,4.2,0,4.038-2.692-.164-2.453-1.6-6.29-4.252-7.057S153.741,130.593,154.433,133.26Z" transform="translate(-80.2 -109.006)" fill="#ffc3bd"/>
  <path id="Path_2678" data-name="Path 2678" d="M173.294,221.88S162.8,292.492,157.04,318.91c-6.29,28.934-40.118,124.844-40.118,124.844l-16.543-3.585s23.65-78.122,28.934-118.629c4.063-31.11,12.077-99.709,12.077-99.709Z" transform="translate(-94.104 -85.022)" fill="#263238"/>
  <path id="Path_2679" data-name="Path 2679" d="M121.128,394.636c.075,0-3.082,5.988-3.082,5.988L99.44,396.586,101,391Z" transform="translate(-94.347 -41.377)" fill="#407bff"/>
  <path id="Path_2680" data-name="Path 2680" d="M155.182,241.89c-12.127,2.378-10.844,47.6-9.385,70.863,3.5-16.442,8.617-48.081,12.115-70.536A4.139,4.139,0,0,0,155.182,241.89Z" transform="translate(-82.622 -79.873)" opacity="0.3"/>
  <path id="Path_2681" data-name="Path 2681" d="M178.929,221.87s1.258,69.1.277,97.281c-1.044,29.311-11.322,125.3-11.322,125.3H152.259S151.693,350.173,151,321.39c-.755-31.45-4.541-99.52-4.541-99.52Z" transform="translate(-82.215 -85.012)" fill="#263238"/>
  <path id="Path_2682" data-name="Path 2682" d="M248.267,183.15h-31.89l-1.786,32.431,31.853.855Z" transform="translate(-64.638 -95.002)" fill="#263238" opacity="0.4"/>
  <path id="Path_2683" data-name="Path 2683" d="M234.551,207.24l-31.941-3.95a275.506,275.506,0,0,0,5.749-32.62l32.129,3.95a275.779,275.779,0,0,1-5.938,32.62Z" transform="translate(-67.729 -98.222)" fill="#407bff"/>
  <path id="Path_2684" data-name="Path 2684" d="M170.1,393.84c.075,0-.881,6.5-.881,6.5H150.176l-.516-5.8Z" transform="translate(-81.39 -40.644)" fill="#407bff"/>
  <path id="Path_2685" data-name="Path 2685" d="M177.929,165.07c1.422,2.214,3.044,4.7,4.667,6.994s3.3,4.629,5.032,6.856a93.9,93.9,0,0,0,11.02,12.291,38.674,38.674,0,0,0,2.969,2.516l.755.566a2.918,2.918,0,0,0-.44-.151h-.4a4.1,4.1,0,0,0,2.076-.478,23.473,23.473,0,0,0,3.183-1.648,110.477,110.477,0,0,0,13.335-10.265l5.4,4.353a63.741,63.741,0,0,1-12.1,14.756,28.608,28.608,0,0,1-4.315,3.183,16.946,16.946,0,0,1-6.353,2.365,11.222,11.222,0,0,1-4.806-.415,10.908,10.908,0,0,1-2.453-1.12l-1.082-.692c-1.447-.931-2.818-1.925-4.114-2.944a91.043,91.043,0,0,1-13.612-13.612c-1.975-2.441-3.887-4.906-5.661-7.473s-3.472-5.032-5.133-7.951Z" transform="translate(-77.202 -99.667)" fill="#ffc3bd"/>
  <path id="Path_2686" data-name="Path 2686" d="M161.055,172.42c-2.956,12.391,19.461,24.531,19.461,24.531l14.568-17.058A120.6,120.6,0,0,0,180.2,161.928C170.062,152.154,163.345,163.01,161.055,172.42Z" transform="translate(-78.519 -101.469)" fill="#407bff"/>
  <path id="Path_2687" data-name="Path 2687" d="M161.055,172.42c-2.956,12.391,19.461,24.531,19.461,24.531l14.568-17.058A120.6,120.6,0,0,0,180.2,161.928C170.062,152.154,163.345,163.01,161.055,172.42Z" transform="translate(-78.519 -101.469)" fill="#fafafa" opacity="0.2"/>
  <path id="Path_2688" data-name="Path 2688" d="M207.78,182.645l3.447-11.045,9.045,4.516s-1.321,8.051-7.913,9.448Z" transform="translate(-66.395 -97.982)" fill="#ffc3bd"/>
  <path id="Path_2689" data-name="Path 2689" d="M214.146,169.17l8.152,2.252-2.73,5.321-9.058-4.516Z" transform="translate(-65.691 -98.609)" fill="#ffc3bd"/>
</svg>
