<svg xmlns="http://www.w3.org/2000/svg" xmlns:xlink="http://www.w3.org/1999/xlink" width="388.722" height="338.959" viewBox="0 0 388.722 338.959">
  <defs>
    <radialGradient id="radial-gradient" cx="0.5" cy="0.5" r="0.823" gradientTransform="translate(0.006 -0.006) rotate(0.671)" gradientUnits="objectBoundingBox">
      <stop offset="0" stop-color="#93dcf7"/>
      <stop offset="1" stop-color="#00b8ff"/>
    </radialGradient>
    <radialGradient id="radial-gradient-2" cx="0.5" cy="0.5" r="0.5" gradientUnits="objectBoundingBox">
      <stop offset="0" stop-color="#f9a77a"/>
      <stop offset="1" stop-color="#f8c247"/>
    </radialGradient>
    <linearGradient id="linear-gradient" x1="0.5" x2="0.5" y2="1" gradientUnits="objectBoundingBox">
      <stop offset="0" stop-color="#b8d5f8"/>
      <stop offset="1" stop-color="#0078ff"/>
    </linearGradient>
    <linearGradient id="linear-gradient-2" x1="0.5" x2="0.5" y2="1" gradientUnits="objectBoundingBox">
      <stop offset="0" stop-color="#faa146"/>
      <stop offset="1" stop-color="#ff8200"/>
    </linearGradient>
  </defs>
  <g id="Group_1003" data-name="Group 1003" transform="translate(3.4 -625.341)">
    <path id="Path_3153" data-name="Path 3153" d="M100.871,54.671s5.4-2.27,13.707-12.222,13.347-21.388,19.522-27.59C147.644,1.26,155.041.273,155.041.273s22.636-4.78,55.056,25.64S234.7,111.4,234.7,111.4s-.977,14.363-11.7,25.048S191.8,154.141,191.8,154.141s-17.139,5.459-27.287,19.447-13.306,36.505-13.306,36.505,1.169,21.044-2.469,34.061-6.624,13.53-12.083,18.005-71.933,10.027-95.638-18.005S3.895,164.708.583,124.6,8.837,77.4,15.921,74.876s18.108,0,18.108,0,23.748.213,40.458-4.838A64.514,64.514,0,0,0,100.871,54.671Z" transform="translate(13.634 915.95) rotate(-83)" opacity="0.83" fill="url(#radial-gradient)"/>
    <path id="Path_3152" data-name="Path 3152" d="M97.284,51.966s5.207-2.157,13.219-11.618,12.873-20.33,18.829-26.224C142.393,1.2,149.528.26,149.528.26s21.829-4.543,53.1,24.371,23.724,81.258,23.724,81.258-.941,13.652-11.283,23.809-30.082,16.817-30.082,16.817S168.453,151.7,158.666,165s-12.832,34.7-12.832,34.7,1.127,20-2.382,32.375-6.388,12.86-11.652,17.115-69.375,9.53-92.237-17.115-35.806-75.515-39-113.64,7.96-44.862,14.792-47.262,17.465,0,17.465,0,22.9.2,39.02-4.6A62.361,62.361,0,0,0,97.284,51.966Z" transform="matrix(0.788, 0.616, -0.616, 0.788, 152.164, 625.341)" opacity="0.86" fill="url(#radial-gradient-2)"/>
    <path id="Path_3155" data-name="Path 3155" d="M8638.279-3391.3c-15.967,1.295-19.851,10.357-9.494,13.809s34.954,1.295,50.921,0,23.3-1.726,12.945-5.178S8654.246-3392.6,8638.279-3391.3Z" transform="translate(-8940.195 1779.16) rotate(16)" opacity="0.78" fill="url(#linear-gradient)"/>
    <path id="Path_3156" data-name="Path 3156" d="M15.251,15.673C-.716,14.379-1.762,4.9,8.448,6.5S-10.853-6.42,5.114-5.125s56.359-6.93,46-3.478S31.218,16.968,15.251,15.673Z" transform="translate(330.241 720.413) rotate(-16)" opacity="0.78" fill="url(#linear-gradient-2)"/>
  </g>
</svg>
