<svg xmlns="http://www.w3.org/2000/svg" xmlns:xlink="http://www.w3.org/1999/xlink" width="730" height="574" viewBox="0 0 730 574">
  <defs>
    <filter id="Rectangle_310" x="0" y="0" width="730" height="574" filterUnits="userSpaceOnUse">
      <feOffset dx="25" dy="25" input="SourceAlpha"/>
      <feGaussianBlur stdDeviation="21.5" result="blur"/>
      <feFlood flood-color="#202020" flood-opacity="0.18"/>
      <feComposite operator="in" in2="blur"/>
      <feComposite in="SourceGraphic"/>
    </filter>
    <linearGradient id="linear-gradient" x1="0.983" y1="0.961" x2="0.233" y2="0.108" gradientUnits="objectBoundingBox">
      <stop offset="0" stop-color="#1a2257"/>
      <stop offset="0.005" stop-color="#67b0fc"/>
      <stop offset="1" stop-color="#55e8ff"/>
    </linearGradient>
    <linearGradient id="linear-gradient-2" x1="0.079" y1="2.027" x2="0.485" y2="0.07" gradientUnits="objectBoundingBox">
      <stop offset="0" stop-color="#c9c4c1"/>
      <stop offset="1" stop-color="#fff6de"/>
    </linearGradient>
    <linearGradient id="linear-gradient-3" x1="-0.105" y1="0.5" x2="0.895" y2="0.5" xlink:href="#linear-gradient-2"/>
    <linearGradient id="linear-gradient-4" y1="0.5" x2="1" y2="0.5" gradientUnits="objectBoundingBox">
      <stop offset="0" stop-color="#d1d7e0"/>
      <stop offset="1" stop-color="#ebebff"/>
    </linearGradient>
  </defs>
  <g id="Group_1005" data-name="Group 1005" transform="translate(-132.5 -1207.5)">
    <g id="Group_835" data-name="Group 835" transform="translate(144.474 1207.634)">
      <g id="Rectangle_311" data-name="Rectangle 311" transform="translate(0 83.516) rotate(-8)" fill="none" stroke="#f1ac29" stroke-width="3">
        <rect width="600.089" height="444.634" stroke="none"/>
        <rect x="1.5" y="1.5" width="597.089" height="441.634" fill="none"/>
      </g>
      <g id="Rectangle_309" data-name="Rectangle 309" transform="translate(61.882 0) rotate(8)" fill="none" stroke="#7abafc" stroke-width="3">
        <rect width="600.089" height="444.634" stroke="none"/>
        <rect x="1.5" y="1.5" width="597.089" height="441.634" fill="none"/>
      </g>
    </g>
    <g transform="matrix(1, 0, 0, 1, 132.5, 1207.5)" filter="url(#Rectangle_310)">
      <rect id="Rectangle_310-2" data-name="Rectangle 310" width="601" height="445" transform="translate(39.5 39.5)" fill="#fbfbfb"/>
    </g>
    <g id="Group_833" data-name="Group 833" transform="translate(241.35 1296.043)">
      <g id="Group_763" data-name="Group 763" transform="translate(0 87.664)">
        <g id="Group_758" data-name="Group 758" transform="translate(69.562 47.929)">
          <path id="Path_2529" data-name="Path 2529" d="M821.582,1422.793c10.134-7.127,21.995-56.795,22.7-86.378.363-15.154,4.842-21.467,8.794-27.037,3.777-5.324,7.04-9.922,5.139-20.481-3.632-20.177,5.917-28.887,6.014-28.973l-1.106-1.26c-.425.372-10.37,9.355-6.558,30.53,1.776,9.865-1.151,13.99-4.857,19.214-3.888,5.48-8.728,12.3-9.1,27.967-.759,31.748-12.885,78.644-21.991,85.047Z" transform="translate(-820.618 -1258.664)" fill="#61c2fd"/>
        </g>
        <g id="Group_759" data-name="Group 759" transform="translate(0 116.25)">
          <path id="Path_2530" data-name="Path 2530" d="M666.726,1539.537c-.957-2.169-1.946-4.411-3.067-6.777-5.789-12.221-10.918-14.233-19.414-17.567-2.077-.815-4.43-1.738-7.013-2.9-12.171-5.469-9.814-13.53-7.735-20.642.291-.995.581-1.987.832-2.969,1.071-4.182-.986-6.281-4.1-9.457a35.5,35.5,0,0,1-7.413-9.939c-2.429-5.079-1.191-7.8.275-9.191,3.088-2.927,10.207-2.387,16.929,1.282a24.452,24.452,0,0,1,5.627,4.846c4.285,4.487,9.618,10.071,23.105,10.134,7.69.036,11.9,1.1,14.085,3.549,2.476,2.782,2.009,6.947,1.363,12.712-.223,1.993-.477,4.254-.63,6.7a39.056,39.056,0,0,0,7.767,25.178c5.138,6.118,11.467,18.81,8.735,26.623-1.145,3.275-3.706,5.336-7.612,6.125a21.659,21.659,0,0,1-4.285.465C674.743,1557.705,671.29,1549.882,666.726,1539.537Zm-31.508-76.687c-6-3.277-12.439-3.938-14.972-1.537-1.925,1.824-1.017,4.95.084,7.251a33.612,33.612,0,0,0,7.1,9.489c3.258,3.324,5.83,5.949,4.526,11.046-.256,1-.551,2.01-.847,3.023-2.071,7.082-4.026,13.771,6.814,18.643,2.546,1.144,4.879,2.06,6.938,2.868,8.576,3.366,14.242,5.589,20.316,18.41,1.13,2.386,2.124,4.639,3.085,6.818,5.243,11.882,8.407,19.055,19.87,16.737,3.286-.664,5.426-2.358,6.362-5.035,2.408-6.885-3.353-18.938-8.438-24.994a40.029,40.029,0,0,1-8.154-26.36c.156-2.482.412-4.764.637-6.777.6-5.334,1.03-9.187-.949-11.411-1.809-2.033-5.769-2.955-12.84-2.988-14.2-.067-19.805-5.936-24.31-10.653a22.934,22.934,0,0,0-5.218-4.532Z" transform="translate(-617.442 -1458.216)" fill="#64b8fc"/>
        </g>
        <g id="Group_760" data-name="Group 760" transform="translate(13 129.635)">
          <path id="Path_2531" data-name="Path 2531" d="M713.25,1593.09l1.673-.088c-.082-1.572-2.194-38.639-17.076-49.486-16.327-11.9-21.475-24.691-23.927-33.277-2.889-10.116-17.593-12.819-18.217-12.929l-.292,1.65c.143.026,14.3,2.634,16.9,11.74,2.52,8.823,7.806,21.964,24.551,34.17C711.1,1555.253,713.23,1592.713,713.25,1593.09Z" transform="translate(-655.411 -1497.31)" fill="#55e8ff"/>
        </g>
        <g id="Group_761" data-name="Group 761" transform="translate(55.082)">
          <path id="Path_2532" data-name="Path 2532" d="M791.247,1352.426c-3.5-1.744-3.375-8.756-3.183-19.37.243-13.411.575-31.779-6.446-48.673-7.458-17.947-.806-23.193,5.626-28.266,7.2-5.681,14.01-11.047.949-35.27-6-11.125-7.9-18.65-5.994-23.681,1.888-4.973,7.183-6.911,12.789-8.962,9.677-3.542,20.644-7.556,19.227-28.036-.434-6.278.3-10.139,2.323-12.151,2.194-2.185,5.427-1.948,9.169-1.674,5.656.414,12.061.882,17.641-6.4.58-1.819,5.915-18.058,12.3-20.838a4.518,4.518,0,0,1,3.9.021h0c4.406,2.107,6.963,4.606,7.816,7.64,1.486,5.277-2.38,11.229-6.856,18.121-7.034,10.831-15.007,23.106-6.738,37.714,10.933,19.315,5.158,26.075-2.834,35.43-4.579,5.359-9.768,11.434-13.237,21.343-2.791,7.969,1.969,15.567,6.572,22.915,5.774,9.217,11.745,18.748-.826,27.019-20.784,13.674-41.31,58.31-41.515,58.759l-.085.185-.161.126c-3.829,3-6.616,4.433-8.715,4.433A3.812,3.812,0,0,1,791.247,1352.426Zm51.281-64.515c11.2-7.37,6.162-15.414.327-24.729-4.59-7.326-9.791-15.629-6.734-24.359,3.573-10.2,8.871-16.406,13.545-21.878,7.831-9.166,13-15.222,2.65-33.516-8.77-15.493-.142-28.778,6.791-39.453,4.254-6.55,7.928-12.207,6.648-16.754-.715-2.543-2.981-4.7-6.926-6.583h0a2.873,2.873,0,0,0-2.512,0c-5.921,2.579-11.358,19.77-11.412,19.943l-.044.139-.088.117c-6.15,8.127-13.378,7.6-19.187,7.172-3.471-.254-6.212-.455-7.864,1.19-1.627,1.62-2.227,5.168-1.834,10.847,1.5,21.737-10.6,26.167-20.324,29.725-5.463,2-10.182,3.727-11.8,7.983-1.724,4.543.151,11.626,5.9,22.291,13.729,25.461,6.045,31.521-1.387,37.381-6.216,4.9-12.087,9.532-5.117,26.306,7.155,17.218,6.819,35.788,6.574,49.347-.168,9.256-.3,16.567,2.254,17.839,1.495.745,4.354-.513,8.5-3.738C802.156,1343.575,821.815,1301.537,842.528,1287.91Z" transform="translate(-778.323 -1118.674)" fill="#65b7fd"/>
        </g>
        <path id="Path_2533" data-name="Path 2533" d="M696.979,1232.358c10.578-3.626,8.38,16.761,12.849,31.846s49.724,6.58,30.728,44.354,24.024,12.633,11.174,45.6-1.118,68.217-15.085,59.25-7.847-50.477-22.373-55.409-16.9-10.685-2.514-24.094-37.687-26.72-24.837-53.8S684.758,1236.548,696.979,1232.358Z" transform="translate(-661.78 -1193.157)" fill="url(#linear-gradient)"/>
        <g id="Group_762" data-name="Group 762" transform="translate(42.13 85.901)">
          <path id="Path_2534" data-name="Path 2534" d="M768.362,1501.753c1.33-5.643,12.691-55.3,2.09-61.306-9.342-5.291-9.112-25.869-7.655-45.3,1.29-17.2-20.8-25.241-21.743-25.575l-.561,1.579c.219.078,21.826,7.948,20.632,23.87-1.5,19.956-1.657,41.132,8.5,46.885,8.048,4.557.638,44.469-2.9,59.462Z" transform="translate(-740.494 -1369.572)" fill="#fff"/>
        </g>
        <path id="Path_2535" data-name="Path 2535" d="M815.613,1704l-15.1,57.3H766.76l-15.1-57.3Z" transform="translate(-705.705 -1503.597)" fill="url(#linear-gradient-2)"/>
        <path id="Path_2536" data-name="Path 2536" d="M815.613,1704s-33.248,6.243-33.248,57.3H766.76l-15.1-57.3Z" transform="translate(-705.705 -1503.597)" fill="url(#linear-gradient-3)"/>
      </g>
      <g id="Group_795" data-name="Group 795" transform="translate(165.164 0)">
        <g id="Group_764" data-name="Group 764" transform="translate(144.733 124.56)">
          <path id="Path_2537" data-name="Path 2537" d="M1523.776,1234.609s4.472-.062,6.064-1.786a20.894,20.894,0,0,1,5.306-3.706c1.207-.587,4.543-3.832,4.962-2.248s-5.313,5.6-6.4,6.688,4.762,1.558,5.62,2.61-2.128,12.127-6.028,11.27-7.094-4.791-7.832-4.782a20.74,20.74,0,0,1-2.88-.493Z" transform="translate(-1522.585 -1226.438)" fill="#eea886"/>
        </g>
        <g id="Group_765" data-name="Group 765" transform="translate(155.633 133.837)">
          <path id="Path_2538" data-name="Path 2538" d="M1559.431,1253.535s11.641,3.555,12.121,4.563.154,1.745-.955,1.466-11.4-3.049-11.4-3.049,12.722,6.956,13.3,7.652c.335.407-.223,1.862-.839,1.778s-13.713-6.092-13.713-6.092,11.864,6.521,12.16,7.3c.259.677-.536,1.927-1.457,1.517s-12.354-5.7-12.354-5.7,8.266,5.414,8.139,6.305c-.078.545-.512,1.817-2.594.337s-7.418-4.324-7.418-4.324Z" transform="translate(-1554.42 -1253.535)" fill="#eea886"/>
        </g>
        <g id="Group_766" data-name="Group 766" transform="translate(108.6 328.094)">
          <path id="Path_2539" data-name="Path 2539" d="M1429.883,1821.938s3.735,5.587,8.973,6.794,10.4,3.127,10.438,6.433-15.146,5.277-21.14,1.945c-8.947-4.974-9.857-3.475-10.849-5.961s1.192-9.135,1.127-9.925C1418.352,1820.246,1429.883,1821.938,1429.883,1821.938Z" transform="translate(-1417.046 -1820.919)" fill="#353a3d"/>
        </g>
        <g id="Group_767" data-name="Group 767" transform="translate(109.978 324.733)">
          <path id="Path_2540" data-name="Path 2540" d="M1431.949,1812.725a23.856,23.856,0,0,1,.58,2.756c-.1.057-11.8,1.451-11.451-.715.287-1.756.7-3.665.7-3.665Z" transform="translate(-1421.071 -1811.102)" fill="#81807e"/>
        </g>
        <g id="Group_768" data-name="Group 768" transform="translate(35.15 327.356)">
          <path id="Path_2541" data-name="Path 2541" d="M1215.311,1820.149s2.664,5.345,7.215,7.165c4.865,1.946,8.766,4.182,8.678,7.4s-11.893,6.485-20.481.3c-5.426-3.906-7.145-3.925-8.016-6.384s1.511-8.851,1.479-9.624C1204.145,1818.059,1215.311,1820.149,1215.311,1820.149Z" transform="translate(-1202.515 -1818.764)" fill="#353a3d"/>
        </g>
        <g id="Group_769" data-name="Group 769" transform="translate(36.815 323.889)">
          <path id="Path_2542" data-name="Path 2542" d="M1218.641,1810.714a26.129,26.129,0,0,1-.133,2.775c-.1.052-11.412.984-11.125-1.135a17.42,17.42,0,0,1,1.1-3.717Z" transform="translate(-1207.378 -1808.637)" fill="#81807e"/>
        </g>
        <g id="Group_770" data-name="Group 770" transform="translate(32.43 150.281)">
          <path id="Path_2543" data-name="Path 2543" d="M1251.693,1313.984s14.857,56.916,20.513,70.074c5.241,12.191,6.97,29.24,7.692,37.8.908,10.77,6.31,52.713,6.945,55.861s-17.477,1.742-17.477,1.742-12.489-72.519-17.674-83.1c-3.46-7.062-23.536-57.708-25.834-54.791s-5.146,53.661-6.847,62.085-6.925,74.983-6.925,74.983-11.678,1.723-14.8-.917c0,0-1.42-56.833-.336-72.626.413-6.018-7.052-72.165,2.52-98.794C1204.535,1292.231,1251.693,1313.984,1251.693,1313.984Z" transform="translate(-1194.572 -1301.565)" fill="#2d3133"/>
        </g>
        <g id="Group_771" data-name="Group 771" transform="translate(6.801 54.973)">
          <path id="Path_2544" data-name="Path 2544" d="M1119.714,1090.1c0,.651,1.229,3.255,3.191,7,2.869-5.739,5.123-10.452,5.86-12.185,2.418-5.711,14.877-18.8,14.877-18.8a.1.1,0,0,0,.006.027.057.057,0,0,0,0,.016.033.033,0,0,1,0,.015c.005.018.011.036.014.054s.018.068.031.111a.649.649,0,0,1,.018.069.5.5,0,0,1,.014.053c.679,2.527,4.845,18.325,5,26.107.169,8.471,2.38,24.144,2.38,24.144h.009l2.6.365,5.756.812.69.1,1.675.235,15.265,2.148,5.414.761.732.1,3.095.435,8.546,1.2,2.179.306.02,0,1.631.23,2.257.317,0,0c.062-.084,2.2-3,1.866-9.491-.209-4.187-.713-12.056-.5-19.354,0-.038,0-.076,0-.113,0-.093.005-.184.007-.277,0-.032,0-.062.005-.092v-.017a52.122,52.122,0,0,1,1.234-10.7,44.315,44.315,0,0,0,1.061-5.7l.033-.264c.038-.337.075-.67.106-1a50.306,50.306,0,0,0,.08-9.143l.009.018c.155.337,1.269,4.42,2.729,9.462,2.469,8.522,5.924,19.781,7.4,20.322,2.141.789,36.824,11.06,44.314,12.112.867.122,1.369.12,1.416-.033.035-.109.069-.222.1-.339.91-3,2.161-8.1,2.361-8.923.02-.074.029-.114.029-.114l-1.342-.4-37.738-11.309-17.251-49.748c-.36-.288-4.6-2.339-7.692-3.811-3.155-1.5-6.96-3.708-10.4-5.6-1.757-.961-3.419-1.838-4.855-2.5l-.221-.1,0,0c-2.376-1.087-3.954-1.806-3.954-1.806h-.007c-.057-.005-.43-.042-1.032-.1-3.313-.315-13.61-1.28-17.06-1.482-.284-.018-.522-.029-.706-.033-.159-.006-.275-.007-.348,0a43.083,43.083,0,0,0-5.349,1.828h0c-.105.04-.211.08-.318.122l-.4.15-.737.284c-.5.194-1.012.395-1.533.6l-.544.215c-5.582,2.216-11.978,4.953-13.5,6.046-1,.719-4.131,6.614-7.758,13.9-4.67,14.96-10.588,37.858-10.772,43.506C1119.716,1089.937,1119.714,1090.023,1119.714,1090.1Z" transform="translate(-1119.714 -1023.191)" fill="#decbc4"/>
        </g>
        <g id="Group_772" data-name="Group 772" transform="translate(37.32 148.495)">
          <path id="Path_2545" data-name="Path 2545" d="M1259.6,1303.361s1.149,1.374,1.481,7.192c0,0-47.225-5.51-52.218-7.681,0,0-.2-6.411.864-6.523C1210.9,1296.228,1259.6,1303.361,1259.6,1303.361Z" transform="translate(-1208.853 -1296.348)" fill="#495055"/>
        </g>
        <g id="Group_773" data-name="Group 773" transform="translate(47.798 36.46)">
          <path id="Path_2546" data-name="Path 2546" d="M1239.459,986.033c.147,7.411,14.5,11.466,14.5,11.466s6-7.525,4.569-8.246c-.563-.283-.792-1.406-.862-2.666a26.027,26.027,0,0,1,.082-3.362c.042-.524.083-.861.083-.861s-2.05-2.164-4.658-4.741c-4.558-4.507-10.824-10.28-10.834-7.983a2.013,2.013,0,0,0,.053.436C1243.489,975.244,1239.459,986.033,1239.459,986.033Z" transform="translate(-1239.459 -969.118)" fill="#eea886"/>
        </g>
        <g id="Group_774" data-name="Group 774" transform="translate(45.684 149.362)">
          <path id="Path_2547" data-name="Path 2547" d="M1236.588,1299.152s-1.03,6.5-1.12,8.194l-2.185-.436s.6-6.877.956-8.03Z" transform="translate(-1233.283 -1298.881)" fill="#353a3d"/>
        </g>
        <g id="Group_775" data-name="Group 775" transform="translate(81.93 154.441)">
          <path id="Path_2548" data-name="Path 2548" d="M1341.35,1314.023s.828,5.908.848,8.14l-2.311-.3s-.474-7.378-.738-8.149Z" transform="translate(-1339.149 -1313.714)" fill="#353a3d"/>
        </g>
        <g id="Group_776" data-name="Group 776" transform="translate(53.325 42.515)">
          <path id="Path_2549" data-name="Path 2549" d="M1255.6,986.8h0c.029.043.637.954,1.676,2.26,2.2,2.771,6.344,7.323,11,9.152a26.02,26.02,0,0,1,.082-3.362,7.479,7.479,0,0,0,1.425-.172,44.132,44.132,0,0,0-3.12-4.569l-2.881-.862Z" transform="translate(-1255.602 -986.803)" fill="#a77860"/>
        </g>
        <g id="Group_777" data-name="Group 777" transform="translate(45.684 12.174)">
          <path id="Path_2550" data-name="Path 2550" d="M1238.17,923.091c1.242,2.7,2.42,4.658,2.755,5.433h0a9.6,9.6,0,0,0,1.676,2.261c2.365,2.548,6.761,5.908,11.082,5.79a7.465,7.465,0,0,0,1.425-.171,6.78,6.78,0,0,0,4.939-3.412c8.952-17.529,2.471-31.862,2.471-31.862s-24.479-6.922-28.309.447C1231.522,906.746,1235.253,916.745,1238.17,923.091Z" transform="translate(-1233.283 -898.183)" fill="#eea886"/>
        </g>
        <g id="Group_778" data-name="Group 778" transform="translate(42.017)">
          <path id="Path_2551" data-name="Path 2551" d="M1255.474,877.747s2.273-.126,2.835-4.436c.556-4.259-.568-5.438-.568-5.438s-10.106-4.23-13.735-4.781-12.553-1.078-14.645,1.313c0,0-5.082-1.181-6.466,7.256-2.2,13.384,7.485,26.381,7.485,26.381s-.082-8.744,1.845-9.9,3.593,1.6,3.593,1.6l3.944.707s-5.991-12.937,1.2-13.416S1251.36,878.5,1255.474,877.747Z" transform="translate(-1222.572 -862.625)" fill="#252e3b"/>
        </g>
        <g id="Group_779" data-name="Group 779" transform="translate(48.258 19.936)">
          <path id="Path_2552" data-name="Path 2552" d="M1247.7,924.545c-.376-3.852-7.342-5.323-6.875-1.285s3.9,7.917,5.482,7.78S1247.986,927.481,1247.7,924.545Z" transform="translate(-1240.802 -920.855)" fill="#eea886"/>
        </g>
        <g id="Group_780" data-name="Group 780" transform="translate(6.801 56.805)">
          <path id="Path_2553" data-name="Path 2553" d="M1122.905,1100.621c3.035,5.789,7.823,14.307,12.551,22.567-.622,1.162-1.23,2.314-1.813,3.452a69.1,69.1,0,0,0-3.579,7.985c-1.078,3.019-2.576,10.751.291,12.187l15.107,8.338s.106-.295.306-.841c.5-1.356,1.586-4.259,3.088-8.018.049-.122.2-.481.424-1.008.3-.709.734-1.721,1.229-2.877.223-.517.455-1.063.7-1.624.273-.641.557-1.3.839-1.959.411-.958.821-1.91,1.2-2.791,1.03-2.4,1.835-4.267,1.835-4.267.051-.111.1-.22.153-.331q.738-1.594,1.509-3.193c.794-1.647,1.611-3.288,2.447-4.892.084-.164.167-.326.253-.488.149-.282.3-.564.448-.843.093-.171.186-.342.279-.511.02-.038.042-.076.062-.115l.113-.2c4.368-7.966,9.287-14.627,10.856-24.4q.226-1.415.432-2.811c.227-1.552.437-3.083.628-4.583.071-.568.142-1.129.209-1.686.786-6.518,1.256-12.325,1.635-16.37,1.182-12.6-6.537-26.247-12.464-34.676a93.286,93.286,0,0,0-6.336-8.1c-.013-.011-.021-.022-.031-.031l-.318.122-.4.149-.737.284c-.5.194-1.012.395-1.533.6l-.544.215c-5.739,2.25-17.823,5.574-19.344,6.665-.877.628-2.841,6.379-5.108,13.642-4.669,14.96-7.441,37.515-7.576,43.148,0,.089,0,.175,0,.255C1119.714,1094.272,1120.943,1096.876,1122.905,1100.621Zm22.955-2.815a26.061,26.061,0,0,1-2.32,9.459c-.036.085-.071.173-.107.258-.969-2.067-1.881-4.045-2.7-5.879a.021.021,0,0,1,0-.009c-2.248-5.032-3.792-8.957-3.878-10.51-.555-9.978,6.794-21.464,6.794-21.464a.059.059,0,0,0,0,.017.031.031,0,0,1,0,.014c.005.018.011.036.014.054.011.037.022.073.031.112a.615.615,0,0,1,.018.069.48.48,0,0,1,.014.053C1145.239,1075.912,1145.86,1097.806,1145.86,1097.806Z" transform="translate(-1119.714 -1028.54)" fill="#3c4145"/>
        </g>
        <path id="Path_2554" data-name="Path 2554" d="M1161.492,1272.044l-43.061,19.166a4.828,4.828,0,0,1-6.374-2.447l-11.789-26.485a4.828,4.828,0,0,1,2.448-6.374l43.061-19.166a4.828,4.828,0,0,1,6.374,2.447l11.789,26.485A4.828,4.828,0,0,1,1161.492,1272.044Z" transform="translate(-1099.85 -1108.376)" fill="#b3a5a0"/>
        <g id="Group_781" data-name="Group 781" transform="translate(70.927 58.499)">
          <path id="Path_2555" data-name="Path 2555" d="M1307.014,1033.579s2.019,6.723,4.631,23.505a.006.006,0,0,0,0,.005c.09.564.176,1.138.266,1.724.009.068.02.136.031.2.058.388.118.781.177,1.18.007.047.014.094.022.14.04.268.08.537.118.81q.147.995.295,2.026c1.165,8.169,2.8,22.071,4.371,36.105v.005c1.242,11.062,4.071,22.413,4.97,30.884,0,.006,0,.011,0,.017a58.459,58.459,0,0,0,1.176,6.368c.064.282.131.568.2.857,2.531,10.693,7.444,25.826,7.444,25.826l1.431-1.322,4.238-3.912a3.435,3.435,0,0,0,.952-3.545c-2.35-7.582-10.339-34.417-11.8-53.285a.056.056,0,0,1,0-.017c.719-6.63,2.554-15.525,2.28-16.8.018.045.034.091.051.138.841,2.339,1.773,4.882,2.713,7.359v0c2.522,6.649,5.1,12.809,6.175,13.2,2.39.879,45.326,13.546,45.637,11.779.031-.178.068-.368.109-.568s.082-.4.127-.621c.53-2.42,1.493-5.889,2.165-8.232l.276-.957c.282-.971.466-1.586.466-1.586l-36.308-11.917-18.321-47.909c-.36-.285-5.035-2.8-8.13-4.275-3.222-1.535-7.3-3.427-10.918-5.1-1.728-.8-3.355-1.546-4.73-2.177Z" transform="translate(-1307.014 -1033.49)" fill="#3c4145"/>
        </g>
        <g id="Group_782" data-name="Group 782" transform="translate(39.375 56.804)">
          <path id="Path_2556" data-name="Path 2556" d="M1221.825,1046.931l6.982,3.937-2.983,3.042,7.942,42.881c1.619-10.051,2.356-19.6,2.9-25.449,1.826-19.482-17.619-41.459-18.829-42.8-.934.354-1.943.746-2.985,1.158Z" transform="translate(-1214.856 -1028.537)" fill="#51565c"/>
        </g>
        <g id="Group_783" data-name="Group 783" transform="translate(70.82 58.4)">
          <path id="Path_2557" data-name="Path 2557" d="M1306.7,1033.2s2.608,8.519,5.648,29.783c1.166,8.168,2.8,22.071,4.373,36.1l1.625-40.159-3.326-3.6,2.956-3.7-6.326-16.153c-1.728-.8-3.355-1.546-4.731-2.178Z" transform="translate(-1306.699 -1033.199)" fill="#51565c"/>
        </g>
        <g id="Group_784" data-name="Group 784" transform="translate(41.971 53.374)">
          <path id="Path_2558" data-name="Path 2558" d="M1222.438,1022.1l5.828-3.578s.162,3.174,14.5,11.466l-4.071,11.466Z" transform="translate(-1222.438 -1018.521)" fill="#f5e2d9"/>
        </g>
        <g id="Group_785" data-name="Group 785" transform="translate(62.296 54.974)">
          <path id="Path_2559" data-name="Path 2559" d="M1285.615,1023.192s-.226,3.426-3.813,9.867l7.945,10.358.579-16.8Z" transform="translate(-1281.802 -1023.192)" fill="#f5e2d9"/>
        </g>
        <g id="Group_786" data-name="Group 786" transform="translate(61.168 64.841)">
          <path id="Path_2560" data-name="Path 2560" d="M1279.615,1052.011s-1.54,6.159-.986,7.883c0,0,3.386,1.232,5.82-.308A27.058,27.058,0,0,0,1279.615,1052.011Z" transform="translate(-1278.509 -1052.011)" fill="#faa146"/>
        </g>
        <g id="Group_788" data-name="Group 788" transform="translate(69.503 135.747)">
          <g id="Group_787" data-name="Group 787">
            <path id="Path_2561" data-name="Path 2561" d="M1303.583,1277.034c.862-4.345.042-17.367.006-17.919l-.737.047c.008.134.849,13.477.006,17.728Z" transform="translate(-1302.852 -1259.115)" fill="#ad9f99"/>
          </g>
        </g>
        <g id="Group_789" data-name="Group 789" transform="translate(64.051 151.663)">
          <path id="Path_2562" data-name="Path 2562" d="M1287.083,1305.6s6.949.83,9.246,1.4l-.3,7.789-9.1-.971Z" transform="translate(-1286.929 -1305.601)" fill="#69737a"/>
        </g>
        <g id="Group_790" data-name="Group 790" transform="translate(61.865 71)">
          <path id="Path_2563" data-name="Path 2563" d="M1284.405,1070.862s7.75,19.572,6.486,41.478c-1.311,22.713-3.461,30.949-3.461,30.949l-4.779,5.993-2.107-7.366s6.412-28.957,2.273-57.135c-.751-5.106-1.864-14.781-1.864-14.781Z" transform="translate(-1280.545 -1070)" fill="#faa146"/>
        </g>
        <g id="Group_791" data-name="Group 791" transform="translate(34.883 164.262)">
          <path id="Path_2564" data-name="Path 2564" d="M1209.291,1342.427s1.663,3.326,3.326,3.88,4.088,3.256,4.088,3.256l-11.71,6.167s-3.118-6.1-3.257-9.977S1209.291,1342.427,1209.291,1342.427Z" transform="translate(-1201.736 -1342.4)" fill="#eea886"/>
        </g>
        <g id="Group_792" data-name="Group 792" transform="translate(34.195 164.602)">
          <path id="Path_2565" data-name="Path 2565" d="M1209.081,1343.392l.776,1.559s-7.437,5.439-9.441,5.786l-.688-2.079Z" transform="translate(-1199.727 -1343.392)" fill="#decbc4"/>
        </g>
        <g id="Group_793" data-name="Group 793" transform="translate(13.017 127.17)">
          <path id="Path_2566" data-name="Path 2566" d="M1169.177,1271.561a57.081,57.081,0,0,1-10.269,6.733l-21.039-36.891,13.428-7.343S1168.807,1268.79,1169.177,1271.561Z" transform="translate(-1137.869 -1234.061)" fill="#3c4145"/>
        </g>
        <g id="Group_794" data-name="Group 794" transform="translate(89.69 86.372)">
          <path id="Path_2567" data-name="Path 2567" d="M1363.632,1127.96c.258,5.256.221,9.923.221,9.923v0c0,.026.007.167.018.4.011-.089.022-.177.033-.264.841,2.339,1.773,4.883,2.713,7.358a78.762,78.762,0,0,0,.211-8.019c-.377-14.737-5.012-22.466-5.012-22.466C1362.878,1117.468,1363.388,1122.979,1363.632,1127.96Z" transform="translate(-1361.815 -1114.899)" fill="#2d3133"/>
        </g>
      </g>
      <g id="Group_796" data-name="Group 796" transform="translate(441.235 25.095)">
        <path id="Path_2568" data-name="Path 2568" d="M1906.2,950.982a93.4,93.4,0,0,1,6.182-8.106c3.086-3.594,7.418-7.625,8.332-6.859,1.388,1.162-2.542,4.06-5.359,7.83-2.594,3.471-1.494,3.225-1.494,3.225s-.317.053,3.254-3.176c3.84-3.471,8.11-7.038,8.87-6.425.943.759,1,.934-.188,2.423.867-.708,1.187-.57,1.521-.234,1.729,1.737-3.107,7.721-5.029,10.1,1.488-1.816,2.776-2.988,3.147-1.242.425,2-6.8,10.147-9.1,13.316C1913.815,965.287,1906.2,950.982,1906.2,950.982Z" transform="translate(-1906.196 -935.922)" fill="#eea886"/>
      </g>
      <g id="Group_800" data-name="Group 800" transform="translate(333.997 327.155)">
        <g id="Group_799" data-name="Group 799">
          <g id="Group_798" data-name="Group 798">
            <g id="Group_797" data-name="Group 797">
              <path id="Path_2569" data-name="Path 2569" d="M1607.9,1819.118s7.511,4.441,10.911,6.091,16.614,2.123,17.92,3.364.827,5.19-1.363,5.593-18.25,1.856-23.608.6-15.38.856-17.6.1-.788-12.719.07-15.4S1607.9,1819.118,1607.9,1819.118Z" transform="translate(-1592.975 -1818.175)" fill="#181929"/>
            </g>
          </g>
        </g>
      </g>
      <g id="Group_804" data-name="Group 804" transform="translate(335.835 323.206)">
        <g id="Group_803" data-name="Group 803">
          <g id="Group_802" data-name="Group 802">
            <g id="Group_801" data-name="Group 801">
              <path id="Path_2570" data-name="Path 2570" d="M1612.052,1806.641l-.625,4.891s-10.041,1.878-13.083.331l.754-5.083Z" transform="translate(-1598.343 -1806.641)" fill="#22243b"/>
            </g>
          </g>
        </g>
      </g>
      <g id="Group_805" data-name="Group 805" transform="translate(333.997 134.695)">
        <path id="Path_2571" data-name="Path 2571" d="M1648.805,1277.452c-.107,3.388-.724,10.738-1.443,18.457-.16,1.715-.329,3.449-.494,5.162-1,10.387-2.012,19.995-2.012,19.995-1.268,8.268-3.885,22.625-6.809,33.479v0c-.845,3.132-1.712,5.973-2.582,8.291a20.475,20.475,0,0,1-2.523,5.075c-6.222,7.948-20.489,78.417-20.489,78.417l-19.476-.149s4.283-47.717,8.589-59.811c4.8-13.509,13.147-31.713,11.075-44.742-1.3-8.176-2.97-34.2-2.97-34.2s-1.628-29.243,6.021-50.661C1617.6,1251.414,1648.805,1277.452,1648.805,1277.452Z" transform="translate(-1592.977 -1256.041)" fill="#292c47"/>
      </g>
      <path id="Path_2572" data-name="Path 2572" d="M1794.781,1839.626c-2.194.377-18.27,1.637-23.614.32s-15.389.672-17.6-.109-.635-12.727.255-15.4,13.673-.185,13.673-.185,7.457,4.53,10.837,6.221,16.587,2.323,17.878,3.579" transform="translate(-1363.848 -1494.322)" fill="#181929"/>
      <g id="Group_809" data-name="Group 809" transform="translate(390.561 325.028)">
        <g id="Group_808" data-name="Group 808" transform="translate(0 0)">
          <g id="Group_807" data-name="Group 807">
            <g id="Group_806" data-name="Group 806">
              <path id="Path_2573" data-name="Path 2573" d="M1771.958,1811.98l-.684,4.883s-10.063,1.757-13.087.174l.815-5.074Z" transform="translate(-1758.187 -1811.964)" fill="#22243b"/>
            </g>
          </g>
        </g>
      </g>
      <g id="Group_810" data-name="Group 810" transform="translate(361.382 137.089)">
        <path id="Path_2574" data-name="Path 2574" d="M1692.632,1381.109c-.507-15.584-1.884-25.939-5.894-34.943-3.368-7.561-6.25-31.308-6.25-31.308s-9.128-27.825-7.278-50.495c.463-5.661,35.743,8.572,35.743,8.572a208.559,208.559,0,0,1,3.969,21.393c4.777,44.018,2.989,72.694,2.989,72.694-2.728,9.719,4.165,86.191,4.165,86.191h-19.857s-5.206-27.2-5.754-44.123C1694.465,1409.091,1692.435,1383.8,1692.632,1381.109Z" transform="translate(-1672.962 -1263.033)" fill="#292c47"/>
      </g>
      <g id="Group_812" data-name="Group 812" transform="translate(350.571 49.688)">
        <g id="Group_811" data-name="Group 811">
          <path id="Path_2575" data-name="Path 2575" d="M1671.422,1011.56s9.252,15.169,11.957,23.632.526,33.073,1,38.019c1.481,15.345,3.641,32.239,3.641,32.239l-31.016,19.811a306.762,306.762,0,0,1-10.421-29.194c-4.854-16.191-5.245-30.768-5.2-40.509.142-30.553,16.657-47.8,16.657-47.8Z" transform="translate(-1641.384 -1007.753)" fill="#cfbeb6"/>
        </g>
      </g>
      <g id="Group_814" data-name="Group 814" transform="translate(361.081 6.871)">
        <g id="Group_813" data-name="Group 813">
          <path id="Path_2576" data-name="Path 2576" d="M1703.008,888.635s6.359,6.806,4.563,8.6c-1.484,1.479,4.363,8.262,5.194,9.4s-2.6,3.028-3.16,4.051-.233,11.7-3.176,12.8-17.807-.063-22.529-2.945-12.338-19.5-11.792-27.5S1691.823,876.766,1703.008,888.635Z" transform="translate(-1672.082 -882.695)" fill="#eea886"/>
        </g>
      </g>
      <g id="Group_816" data-name="Group 816" transform="translate(369.021 18.422)">
        <g id="Group_815" data-name="Group 815">
          <path id="Path_2577" data-name="Path 2577" d="M1712.246,943.36s-.109.907-.254,2.313c-.055.59-.127,1.26-.191,2-.036.435-.073.9-.118,1.369-.009.127-.027.254-.036.381-.018.217-.036.435-.055.662-.072,1.025-.145,2.086-.2,3.138a33.045,33.045,0,0,0,.136,6.749c.78,3.955-16.256-12.736-16.256-12.736a195.014,195.014,0,0,0,.744-27.494C1695.31,905.189,1712.246,943.36,1712.246,943.36Z" transform="translate(-1695.273 -916.432)" fill="#eea886"/>
        </g>
      </g>
      <g id="Group_818" data-name="Group 818" transform="translate(358.369 0.92)">
        <g id="Group_817" data-name="Group 817">
          <path id="Path_2578" data-name="Path 2578" d="M1699.1,878.7s3.008-7.1-6.27-12.024c-10.923-5.8-22.5,8.763-24.041,9.62s-8.52,8.717-1.686,19.134c8.624,13.146,8.169,12.7,8.169,12.7s.865-9.7.808-11.568c-.1-3.42,8.868-3.826,8.868-3.826s-3.684-4.9.411-7.1S1694.25,878.218,1699.1,878.7Z" transform="translate(-1664.16 -865.313)" fill="#3a3f47"/>
        </g>
      </g>
      <g id="Group_820" data-name="Group 820" transform="translate(367.633 24.257)">
        <g id="Group_819" data-name="Group 819">
          <path id="Path_2579" data-name="Path 2579" d="M1698.037,936.323c-.653-.917-3.049-4.968-6.131-1.411s5.183,10.209,5.865,10.143S1703.532,944.044,1698.037,936.323Z" transform="translate(-1691.22 -933.475)" fill="#eea886"/>
        </g>
      </g>
      <g id="Group_821" data-name="Group 821" transform="translate(351.703 145.58)">
        <path id="Path_2580" data-name="Path 2580" d="M1691.892,1296.173s-1.543-7.256-1.841-8.341l-45.359,7.547.465,5.863S1677.838,1299.286,1691.892,1296.173Z" transform="translate(-1644.692 -1287.832)" fill="#23263d"/>
      </g>
      <g id="Group_822" data-name="Group 822" transform="translate(343.681 121.954)">
        <path id="Path_2581" data-name="Path 2581" d="M1625.245,1218.827s6.968,30.093-3.945,65.2c-1.333,4.285,30.207-.667,30.207-.667Z" transform="translate(-1621.259 -1218.827)" fill="#faa146"/>
      </g>
      <g id="Group_824" data-name="Group 824" transform="translate(345.79 49.689)">
        <g id="Group_823" data-name="Group 823">
          <path id="Path_2582" data-name="Path 2582" d="M1669.362,1142.35s-22.4,4.917-28.7,2.694c0,0-9.156-33.307-12.349-67.114q-.372-3.92-.626-7.825v-.005c-1.782-27.5,5.217-55.4,21.168-62.343.449.3,22.914,20.11,22.487,38.238q-.046,1.84-.056,3.691c-.014,2.228,0,4.463.051,6.691l0,0c.143,6.9.57,13.776,1.179,20.455.062.7.129,1.392.2,2.082q.164,1.684.342,3.346.24,2.214.5,4.39A149.617,149.617,0,0,1,1669.362,1142.35Z" transform="translate(-1627.42 -1007.757)" fill="#faa146"/>
        </g>
      </g>
      <g id="Group_825" data-name="Group 825" transform="translate(386.811 66.415)">
        <path id="Path_2583" data-name="Path 2583" d="M1747.235,1056.936a249.182,249.182,0,0,1,5.829,37.73c1.346,17.589,3.144,30.027,3.144,30.027l2.693,8.707,1.107-8.4s-.988-22.7-2.3-31.933c-1.328-9.31-1.908-21.129-9.351-36.461Z" transform="translate(-1747.235 -1056.608)" fill="#d44040"/>
      </g>
      <g id="Group_826" data-name="Group 826" transform="translate(385.639 61.447)">
        <path id="Path_2584" data-name="Path 2584" d="M1744.512,1047.406a2.5,2.5,0,0,0,1.229.594c.72.107,1.75-1.044-1.93-5.9Z" transform="translate(-1743.811 -1042.1)" fill="#d44040"/>
      </g>
      <g id="Group_828" data-name="Group 828" transform="translate(367.231 47.177)">
        <g id="Group_827" data-name="Group 827">
          <path id="Path_2585" data-name="Path 2585" d="M1692.033,1000.42s10.431,9.824,16.639,11.992l1.184,9.411-19.811-18.892Z" transform="translate(-1690.045 -1000.42)" fill="#eddad3"/>
        </g>
      </g>
      <path id="Path_2586" data-name="Path 2586" d="M1757.7,1010.093s-21.453,38.1-27.225,44.164-47.622-15.354-47.622-15.354c-4.111-1.462-21.2-9.757-16.655-19.44s16.262-4.533,25.081-.593c9.228,4.122,31.011,16.788,32.735,15.608s9.259-11.963,10.621-14.366,9.586-17.762,10.36-18.919c.757-1.131,12.7,8.9,12.7,8.9" transform="translate(-1306.629 -953.691)" fill="#faa146"/>
      <g id="Group_829" data-name="Group 829" transform="translate(369.69 200.969)">
        <path id="Path_2587" data-name="Path 2587" d="M1706.605,1481.842v0c-.845,3.132-1.712,5.973-2.582,8.291l0,0-6.792-40.52C1698.946,1453.456,1706.605,1481.842,1706.605,1481.842Z" transform="translate(-1697.228 -1449.613)" fill="#181929"/>
      </g>
      <g id="Group_830" data-name="Group 830" transform="translate(370.055 82.255)">
        <path id="Path_2588" data-name="Path 2588" d="M1717.949,1118.93l-19.656-16.055c5.206,2.79,18,8.634,19.6,9.363C1717.885,1114.467,1717.9,1116.7,1717.949,1118.93Z" transform="translate(-1698.294 -1102.876)" fill="#8f5c28"/>
      </g>
      <g id="Group_831" data-name="Group 831" transform="translate(373.575 45.087)">
        <path id="Path_2589" data-name="Path 2589" d="M1720.738,996.892c-.055.59-.127,1.26-.191,2-.036.435-.072.9-.118,1.369-6.512-.436-11.547-5.624-11.856-5.941C1711.222,996.42,1720.738,996.892,1720.738,996.892Z" transform="translate(-1708.574 -994.316)" fill="#a77860"/>
      </g>
      <g id="Group_832" data-name="Group 832" transform="translate(294.58 76.943)">
        <path id="Path_2590" data-name="Path 2590" d="M1508.834,1099.12h18.525l-5.67-11.76h-18.525Z" transform="translate(-1494.496 -1087.36)" fill="url(#linear-gradient-4)"/>
        <path id="Path_2591" data-name="Path 2591" d="M1483.516,1099.12h4.414l-5.67-11.76h-4.414Z" transform="translate(-1477.847 -1087.36)" fill="url(#linear-gradient-4)"/>
      </g>
    </g>
  </g>
</svg>
