<svg xmlns="http://www.w3.org/2000/svg" xmlns:xlink="http://www.w3.org/1999/xlink" width="972.546" height="701.931" viewBox="0 0 972.546 701.931">
  <defs>
    <linearGradient id="linear-gradient" x1="0.677" y1="0.692" x2="0.105" y2="0.2" gradientUnits="objectBoundingBox">
      <stop offset="0" stop-color="#e2f2ff"/>
      <stop offset="1" stop-color="#c8f0fe"/>
    </linearGradient>
    <linearGradient id="linear-gradient-2" x1="0.5" x2="0.5" y2="1" gradientUnits="objectBoundingBox">
      <stop offset="0" stop-color="#b8bdff"/>
      <stop offset="1" stop-color="#2b47fb"/>
    </linearGradient>
    <linearGradient id="linear-gradient-3" x1="0.5" x2="0.5" y2="1" gradientUnits="objectBoundingBox">
      <stop offset="0" stop-color="#18b0f8"/>
      <stop offset="1" stop-color="#d5eefa"/>
    </linearGradient>
    <linearGradient id="linear-gradient-4" x1="0.5" x2="0.5" y2="1" gradientUnits="objectBoundingBox">
      <stop offset="0" stop-color="#7cb4fd"/>
      <stop offset="1" stop-color="#55e8ff"/>
    </linearGradient>
    <linearGradient id="linear-gradient-5" x1="0.5" x2="0.5" y2="1" gradientUnits="objectBoundingBox">
      <stop offset="0" stop-color="#66b1fb"/>
      <stop offset="1" stop-color="#94caff"/>
    </linearGradient>
    <linearGradient id="linear-gradient-6" y1="0.414" x2="0.805" y2="0.921" gradientUnits="objectBoundingBox">
      <stop offset="0" stop-color="#7abcfc"/>
      <stop offset="1" stop-color="#dcf1ff" stop-opacity="0.741"/>
    </linearGradient>
    <linearGradient id="linear-gradient-7" x1="1" y1="0.718" x2="-0.183" y2="-0.054" gradientUnits="objectBoundingBox">
      <stop offset="0" stop-color="#ffd155"/>
      <stop offset="1" stop-color="#ffac55"/>
    </linearGradient>
    <linearGradient id="linear-gradient-8" x1="0.5" x2="0.5" y2="1" gradientUnits="objectBoundingBox">
      <stop offset="0" stop-color="#91d8fa"/>
      <stop offset="1" stop-color="#caebfb"/>
    </linearGradient>
    <filter id="Ellipse_44" x="399.722" y="71.731" width="314" height="305" filterUnits="userSpaceOnUse">
      <feOffset dy="10" input="SourceAlpha"/>
      <feGaussianBlur stdDeviation="20" result="blur"/>
      <feFlood flood-opacity="0.271"/>
      <feComposite operator="in" in2="blur"/>
      <feComposite in="SourceGraphic"/>
    </filter>
    <linearGradient id="linear-gradient-9" x1="0.5" x2="0.5" y2="1" gradientUnits="objectBoundingBox">
      <stop offset="0" stop-color="#fff"/>
      <stop offset="1" stop-color="#dce3f1"/>
    </linearGradient>
    <filter id="Ellipse_45" x="664.722" y="340.731" width="90" height="91" filterUnits="userSpaceOnUse">
      <feOffset dy="10" input="SourceAlpha"/>
      <feGaussianBlur stdDeviation="3" result="blur-2"/>
      <feFlood flood-opacity="0.169"/>
      <feComposite operator="in" in2="blur-2"/>
      <feComposite in="SourceGraphic"/>
    </filter>
    <radialGradient id="radial-gradient" cx="0.5" cy="0.5" r="0.5" gradientUnits="objectBoundingBox">
      <stop offset="0" stop-color="#78b8fd"/>
      <stop offset="1" stop-color="#007aff"/>
    </radialGradient>
  </defs>
  <g id="Group_1002" data-name="Group 1002" transform="translate(-1161.278 78.731)">
    <path id="Path_2494" data-name="Path 2494" d="M11149.482-2771.854s-15.828-79.475,11.457-125.187,97.82-51.336,97.82-51.336,69.078,3.094,130.43,19.813,114.84,40.739,114.84,40.739,30.928-131.026-21.426-215.462-187.986-122.28-187.986-122.28,77.219,5.207,137.754,28.615,112.133,65.864,112.133,65.864,4.018-54.858,23.006-76.875,50.027-23.51,50.027-23.51l113.227-97.845h-398.4s-68.309,1.6-145.486,75.142-78.773,142.305-78.773,142.305-21.314,77.748-11.5,157.167S11149.482-2771.854,11149.482-2771.854Z" transform="translate(-9596.94 3395.053)" opacity="0.71" fill="url(#linear-gradient)"/>
    <circle id="Ellipse_48" data-name="Ellipse 48" cx="88" cy="88" r="88" transform="matrix(0.839, -0.545, 0.545, 0.839, 1776.269, 17.125)" opacity="0.71" fill="url(#linear-gradient-2)"/>
    <circle id="Ellipse_46" data-name="Ellipse 46" cx="39" cy="39" r="39" transform="translate(1326 43)" opacity="0.71" fill="url(#linear-gradient-3)"/>
    <g id="Group_753" data-name="Group 753" transform="translate(80 -5)" opacity="0.71">
      <path id="Path_2488" data-name="Path 2488" d="M10131.711-4280s-149.479,43.1-247.433,113.417S9765.2-4012.83,9765.2-4012.83s-15.978,52.984-5.232,109.055,40.346,240.173,40.346,240.173-63.051-214.914-86.69-294.624-16.965-111.318,1.782-166.479,18.234-53.352,58.072-98.525,80.028-56.77,80.028-56.77Z" transform="translate(-8331 4280)" fill="#55e8ff"/>
      <path id="Path_2489" data-name="Path 2489" d="M9901.045-4280s-45.084,28.528-79.071,66.553S9765.1-4127.9,9765.1-4127.9s-10.636,24.507-15.26,49.477-3.236,50.4-3.236,50.4l9.248,70.286s-.925-115.139,116.526-199.3S10130.86-4280,10130.86-4280Z" transform="translate(-8334 4280)" fill="url(#linear-gradient-4)"/>
    </g>
    <g id="Group_754" data-name="Group 754" transform="translate(-8239 4847)" opacity="0.71">
      <path id="Path_2492" data-name="Path 2492" d="M9740.834-4210.171c-2.5-1.25-20.418,9.79-61.232,46.624s-45.47,48.324-59.8,71.676-37.577,70.762-28.026,158.816,66.157,195.674,66.157,195.674-21.023-53.242-9.308-94.114,52.169-57.766,52.169-57.766-27.98-23.527-48.229-55.673-26.515-72.52-24.231-96.335,21.2-66.963,61.28-117.277S9743.337-4208.922,9740.834-4210.171Z" transform="translate(-26 -548)" fill="url(#linear-gradient-5)"/>
      <path id="Path_2493" data-name="Path 2493" d="M9730.167-4758.265s-80.311,129.52-17.321,226.234,269.276,160.621,269.276,160.621l-310.22-67.713s-82.35-56.09-70.475-150.245,111.418-168.9,111.418-168.9Z" transform="translate(1)" fill="url(#linear-gradient-6)"/>
    </g>
    <g id="Group_752" data-name="Group 752" transform="translate(-8258 4569)" opacity="0.71">
      <path id="Path_2490" data-name="Path 2490" d="M9828.434-4280s61.273,53.363,133.72,92.346,156.064,63.588,156.064,63.588,36.42,8.185,74.864-1.9,63.971-36.3,63.971-36.3v49.385s-32.05,30.389-71.418,42.269-86.053,5.251-86.053,5.251-94.868-25.473-199-79.133S9683.075-4280,9683.075-4280Z" transform="translate(-60 -294)" fill="#ffe3a7"/>
      <path id="Path_2491" data-name="Path 2491" d="M9683.075-4280h71.747s98.473,70.91,189.321,114.553,174.074,60.017,174.074,60.017,37.271,5.824,71.747-6.522,66.156-42.862,66.156-42.862v42.862s-34.709,30.283-73.61,41.93-82,4.659-82,4.659-98.479-25.1-223.628-93.178S9683.075-4280,9683.075-4280Z" transform="translate(-59 -294)" fill="url(#linear-gradient-7)"/>
    </g>
    <g transform="matrix(1, 0, 0, 1, 1161.28, -78.73)" filter="url(#Ellipse_44)">
      <ellipse id="Ellipse_44-2" data-name="Ellipse 44" cx="97" cy="92.5" rx="97" ry="92.5" transform="translate(459.72 121.73)" opacity="0.89" fill="url(#linear-gradient-8)"/>
    </g>
    <g transform="matrix(1, 0, 0, 1, 1161.28, -78.73)" filter="url(#Ellipse_45)">
      <circle id="Ellipse_45-2" data-name="Ellipse 45" cx="36" cy="36" r="36" transform="translate(673.72 340.73)" opacity="0.71" fill="url(#linear-gradient-9)"/>
    </g>
    <circle id="Ellipse_49" data-name="Ellipse 49" cx="28.5" cy="28.5" r="28.5" transform="translate(1621 269)" opacity="0.71" fill="url(#radial-gradient)"/>
    <g id="Group_757" data-name="Group 757" transform="translate(-500 -456)" opacity="0.71">
      <path id="Path_2517" data-name="Path 2517" d="M838.361,118.714c2.26-3.2.63-6.827,1.13-10.221,0-2.94.011-5.879,0-8.819-.007-1.71-.04-3.414,2.278-3.673,2.854,1.38,4.586,3.914,6.219,6.421,11.131,17.079,23.45,33.345,34.482,50.5a3.918,3.918,0,0,1,.229,3.615c-2.358,3.008-5.8,2.757-8.856,2.333-11.413-1.582-22.97-.367-34.365-1.994a5.293,5.293,0,0,1-2.655-.813c-2.332-5.118-1.231-10.423-.866-15.693,1.225-3.793.621-7.688.715-11.554C836.753,125.4,835.753,121.733,838.361,118.714Z" transform="translate(831.259 525.282)" fill="#fbfcfe"/>
      <path id="Path_2518" data-name="Path 2518" d="M880.735,152.779c-5.951-6.1-9.72-13.765-14.694-20.572-8.652-11.842-16.722-24.111-25.036-36.2,4.4-.547,8.082,2.818,12.478,2.273,9.1,4.3,19.006,6.054,28.509,9.079,1.917.611,4.027.729,5.565,2.267-1.255,12.85-2.7,25.683-3.092,38.606C884.4,150.43,883.93,152.875,880.735,152.779Z" transform="translate(832.021 525.275)" fill="#eaeef9"/>
      <path id="Path_2519" data-name="Path 2519" d="M956.558,128.9c8.579,1.242,16.5,4.866,24.858,6.881,2.714.653,1.274,2.309.975,3.46-.988,3.8-2.2,7.535-3.325,11.3.278,3.706-1.378,6.928-2.59,10.256-3.4,9.343-6.107,18.923-9.653,28.22-6.364,18.974-13.135,37.805-19.429,56.8-2.76,8.331-3.009,8.476-11.528,8.513-3.02.012-6.042.054-9.066.017-2.589-.037-5.256.368-7.554-1.323a1.261,1.261,0,0,1,.008-1.764c5.008-1.7,15.6-1.764,20.988-.123A8.874,8.874,0,0,1,938.177,247c.707-16.567,1.6-33.125,3.784-49.579a17.224,17.224,0,0,1,2.237-6.983c6.161-9.71,6.466-20.691,7.236-31.625.569-8.084.928-16.195,2.176-24.22C953.953,132.388,953.984,129.974,956.558,128.9Z" transform="translate(842.568 529.738)" fill="#d9dfef"/>
      <path id="Path_2520" data-name="Path 2520" d="M955.952,129.569c-2.02,3.589-1.654,7.727-2.127,11.54-1.291,10.415-1.669,20.941-2.507,31.415-.5,6.207-1.63,12.234-5.325,17.522-4.461,6.384-4.039,14.112-4.571,21.214-.913,12.159-1.817,24.337-2.581,36.516-.184.043-.467.186-.538.115-6.652-6.541-13.155-13.186-14.934-22.916-.053-5.012.623-9.754,4.1-13.752a8.232,8.232,0,0,0,1.625-5.333c.512-23.185,4.033-46.163,4.785-69.338.143-4.4-.008-9.166,3.831-12.565l3.4.018c4.84,1.8,10.628.519,14.784,4.544C955.92,128.889,955.938,129.229,955.952,129.569Z" transform="translate(843.175 529.072)" fill="#dce2f1"/>
      <path id="Path_2521" data-name="Path 2521" d="M939.707,124.8c-3.3,9.977-2.45,20.447-3.219,30.668-1.334,17.75-3.824,35.439-3.632,53.3a2.565,2.565,0,0,1-.326,1.632c-4.485,4.644-5.364,10.667-6.466,16.611-3.133.355-3.751-2.447-5.119-4.2-1.7-2.178-3.3-4.43-5.169-6.48-2.966-4.6-7.5-8.44-7.119-14.672,2.865-11.68,2.321-23.679,3.053-35.521.922-14.9,2.753-29.707,3.758-44.59A4.831,4.831,0,0,1,917,118C924.537,120.363,932.554,121.14,939.707,124.8Z" transform="translate(841.18 528.261)" fill="#dfe5f3"/>
      <path id="Path_2522" data-name="Path 2522" d="M919.2,118.672c-.03,13.152-2.224,26.123-3.226,39.19-.776,10.11-.664,20.287-1.414,30.4-.391,5.274.257,10.921-3.32,15.575-1.6.536-2.568-.487-3.3-1.561-4.7-6.872-9.815-13.452-14.167-20.558a7.63,7.63,0,0,1-1.293-5.406c-.025-13.242,2.318-26.3,2.991-39.49.316-6.19-.261-12.5,1.308-18.6.51-1.982-.041-4.771,3.127-5.229C906.146,115.528,913.264,115.09,919.2,118.672Z" transform="translate(838.979 527.584)" fill="#e3e8f5"/>
      <path id="Path_2523" data-name="Path 2523" d="M902.121,113.671c-1.777,3.376-2.155,7.163-2.177,10.773-.1,17.247-2.981,34.29-3.566,51.494a7.5,7.5,0,0,1-1.087,2.462,1.649,1.649,0,0,1-2.044-.36c-5.687-8-12.564-15.218-16.124-24.607A2.379,2.379,0,0,1,876,151.148c2.069-.933,2.306-2.719,2.286-4.7-.112-11.04,1.217-21.982,2.232-32.947.2-2.137.577-4.068,2.3-5.5C889.286,109.773,896.192,110.06,902.121,113.671Z" transform="translate(836.76 526.907)" fill="#e5ebf7"/>
      <path id="Path_2524" data-name="Path 2524" d="M883.007,148.013c6.467,8.023,11.25,17.272,18.168,24.967a207.364,207.364,0,0,0,18.167,26.114c2.536,4.242,4.639,8.758,7.954,12.5.721,5.579-3.5,5.02-6.59,4.774-8.647-.685-17.31-1.264-25.932-2.231-10.506-1.179-21.08-1.073-31.611-1.848-6.957-.512-13.894-1.281-20.865-1.674-3.11-.175-6.479-.545-8.708-3.392a8.33,8.33,0,0,1-1-4.907c1.345-15.159,1.6-30.377,2.559-45.555,1.02-2.475.383-5.493,2.458-7.632,3.25-1.931,6.515-.261,9.8-.232,10.319.094,20.6.72,30.881,1.365C880.265,150.388,882.069,150.093,883.007,148.013Z" transform="translate(830.876 532.326)" fill="#f5f8fd"/>
      <path id="Path_2525" data-name="Path 2525" d="M834.472,199.994c7.423,3.338,15.538,2.458,23.26,3.075,8.188.653,16.431,1.563,24.714,1.542,12.56-.032,24.985,1.957,37.466,3.121,2.866.267,6.755,1.822,7.64-3.175l9.073,11.343c3.785,7.973,9.356,14.724,14.771,21.583,1.931,3.08,2.19,4.868-2.559,4.6-5.939-.334-11.914-.045-17.873-.026-3.72,2.688-7.984,1.167-12,1.516-2.048.177-4.125-.006-6.185.16-9.8-.085-19.617.569-29.41-.413-9.862-1.78-19.8-.6-29.7-.718-5.992-.073-11.989.276-17.979-.2-3.532-.209-5.346-2.447-4.981-5.609,1.3-11.253.009-22.668,2.244-33.846A4.9,4.9,0,0,1,834.472,199.994Z" transform="translate(830.62 539.365)" fill="#eff3fc"/>
      <path id="Path_2526" data-name="Path 2526" d="M903.007,237.019l18.159.024v1.089l-.006.006c-5.021,2.8-10.374,1.8-15.659,1.277C904.248,239.291,902.941,238.746,903.007,237.019Z" transform="translate(840.417 544.38)" fill="#dddce8"/>
    </g>
  </g>
</svg>
