<svg xmlns="http://www.w3.org/2000/svg" xmlns:xlink="http://www.w3.org/1999/xlink" width="2040.313" height="432" viewBox="0 0 2040.313 432">
  <defs>
    <linearGradient id="linear-gradient" x1="-4.688" y1="1.206" x2="1" y2="0.609" gradientUnits="objectBoundingBox">
      <stop offset="0" stop-color="#9de2fe"/>
      <stop offset="0.979" stop-color="#fff"/>
      <stop offset="1" stop-color="#fff"/>
    </linearGradient>
    <linearGradient id="linear-gradient-2" x1="0.146" y1="0.873" x2="0.913" y2="0.285" gradientUnits="objectBoundingBox">
      <stop offset="0" stop-color="#f67b3b"/>
      <stop offset="1" stop-color="#f7b74f"/>
    </linearGradient>
    <filter id="Path_2519" x="1759.731" y="181.141" width="114.72" height="167.016" filterUnits="userSpaceOnUse">
      <feOffset dx="10" dy="10" input="SourceAlpha"/>
      <feGaussianBlur stdDeviation="10" result="blur"/>
      <feFlood flood-opacity="0.341"/>
      <feComposite operator="in" in2="blur"/>
      <feComposite in="SourceGraphic"/>
    </filter>
    <filter id="Path_2525" x="1674.278" y="249.993" width="164.1" height="97.426" filterUnits="userSpaceOnUse">
      <feOffset dx="10" dy="10" input="SourceAlpha"/>
      <feGaussianBlur stdDeviation="10" result="blur-2"/>
      <feFlood flood-opacity="0.341"/>
      <feComposite operator="in" in2="blur-2"/>
      <feComposite in="SourceGraphic"/>
    </filter>
  </defs>
  <g id="Group_1008" data-name="Group 1008" transform="translate(0 -2922)">
    <path id="Path_2690" data-name="Path 2690" d="M8338-1418.03s11.015-32.766,109.238-92.157,245.531-96.459,383.024-99.656,252.96-11.448,419.009-21.88,79.339-17.883,365.751-41.726S10259.8-1850.03,10259.8-1850.03v432Z" transform="translate(-8338 4772.03)" fill="url(#linear-gradient)"/>
    <circle id="Ellipse_57" data-name="Ellipse 57" cx="71.5" cy="71.5" r="71.5" transform="translate(163 3143)" fill="#ddeaf5" opacity="0.98"/>
    <path id="Path_2691" data-name="Path 2691" d="M0,140.28s23.4-1.594,59.536-23.689S122.029,70.037,144.53,51.9c43.948-35.419,48.5-39.328,96.544-49.153S336.684,12.6,336.684,12.6L423.4,51.9,443.434,64S316.4,3.256,222.993,64s-101.948,89.554-101.948,89.554Z" transform="matrix(-0.998, -0.07, 0.07, -0.998, 2029.601, 3322.454)" opacity="0.61" fill="url(#linear-gradient-2)"/>
    <g id="Group_836" data-name="Group 836" transform="translate(33 2470)">
      <path id="Path_2517" data-name="Path 2517" d="M837.922,115.375c1.927-2.728.537-5.824.964-8.719,0-2.507.01-5.015,0-7.522-.006-1.459-.034-2.912,1.943-3.133,2.435,1.177,3.912,3.338,5.3,5.477,9.494,14.568,20,28.443,29.413,43.079a3.342,3.342,0,0,1,.2,3.084c-2.011,2.566-4.95,2.352-7.554,1.99-9.736-1.349-19.593-.313-29.313-1.7a4.515,4.515,0,0,1-2.264-.693c-1.989-4.366-1.05-8.891-.739-13.386,1.045-3.236.53-6.558.61-9.856C836.551,121.078,835.7,117.951,837.922,115.375Z" transform="translate(830.471 525.274)" fill="#fbfcfe"/>
      <path id="Path_2518" data-name="Path 2518" d="M874.894,144.425c-5.076-5.2-8.291-11.741-12.534-17.548C854.981,116.776,848.1,106.311,841,96c3.751-.467,6.894,2.4,10.644,1.939,7.761,3.665,16.212,5.164,24.319,7.744,1.635.521,3.435.622,4.747,1.934-1.07,10.961-2.3,21.908-2.637,32.931C878.019,142.421,877.62,144.507,874.894,144.425Z" transform="translate(830.294 525.275)" fill="#eaeef9"/>
      <g transform="matrix(1, 0, 0, 1, -33, 452)" filter="url(#Path_2519)">
        <path id="Path_2519-2" data-name="Path 2519" d="M951.02,128.9c7.318,1.06,14.073,4.151,21.2,5.869,2.315.557,1.087,1.97.832,2.951-.843,3.239-1.876,6.427-2.836,9.635.237,3.161-1.176,5.91-2.209,8.749-2.9,7.97-5.21,16.141-8.234,24.072-5.429,16.185-11.2,32.248-16.573,48.45-2.355,7.106-2.567,7.23-9.833,7.262-2.576.011-5.154.046-7.734.015-2.208-.032-4.483.314-6.443-1.128a1.076,1.076,0,0,1,.007-1.505c4.272-1.448,13.305-1.505,17.9-.1a7.569,7.569,0,0,1-1.761-3.526c.6-14.132,1.367-28.255,3.228-42.291a14.694,14.694,0,0,1,1.908-5.956c5.255-8.283,5.516-17.649,6.172-26.976.485-6.9.791-13.814,1.856-20.659C948.8,131.875,948.825,129.816,951.02,128.9Z" transform="translate(860.84 72.24)" fill="#d9dfef"/>
      </g>
      <path id="Path_2520" data-name="Path 2520" d="M951.161,128.748c-1.723,3.061-1.411,6.591-1.814,9.844-1.1,8.884-1.424,17.862-2.138,26.8-.423,5.295-1.391,10.436-4.542,14.946-3.805,5.446-3.445,12.038-3.9,18.1-.779,10.372-1.55,20.759-2.2,31.148-.157.037-.4.159-.459.1-5.674-5.58-11.221-11.247-12.739-19.548-.046-4.275.532-8.321,3.5-11.731a7.022,7.022,0,0,0,1.386-4.549c.437-19.777,3.44-39.377,4.081-59.145.122-3.75-.007-7.819,3.268-10.718l2.9.015c4.129,1.536,9.065.443,12.611,3.876C951.134,128.168,951.15,128.459,951.161,128.748Z" transform="translate(827.701 524.392)" fill="#dce2f1"/>
      <path id="Path_2521" data-name="Path 2521" d="M935.139,123.8c-2.812,8.51-2.09,17.441-2.746,26.16-1.138,15.141-3.262,30.229-3.1,45.461a2.188,2.188,0,0,1-.278,1.392c-3.826,3.961-4.575,9.1-5.516,14.169-2.672.3-3.2-2.087-4.366-3.583-1.449-1.858-2.816-3.779-4.41-5.527-2.53-3.922-6.394-7.2-6.073-12.515,2.444-9.963,1.98-20.2,2.6-30.3.786-12.711,2.349-25.34,3.206-38.036a4.121,4.121,0,0,1,1.3-3.026C922.2,120.015,929.038,120.678,935.139,123.8Z" transform="translate(828.165 524.581)" fill="#dfe5f3"/>
      <path id="Path_2522" data-name="Path 2522" d="M915.256,117.838c-.025,11.218-1.9,22.283-2.752,33.429-.661,8.624-.567,17.3-1.206,25.93-.333,4.5.219,9.315-2.832,13.285-1.363.457-2.191-.415-2.817-1.332-4-5.861-8.372-11.475-12.084-17.536a6.509,6.509,0,0,1-1.1-4.611c-.021-11.3,1.978-22.431,2.551-33.685.269-5.28-.223-10.663,1.116-15.864.435-1.691-.035-4.07,2.667-4.46C904.122,115.156,910.194,114.782,915.256,117.838Z" transform="translate(828.676 524.739)" fill="#e3e8f5"/>
      <path id="Path_2523" data-name="Path 2523" d="M898.281,112.837a19.72,19.72,0,0,0-1.857,9.189c-.087,14.712-2.542,29.249-3.042,43.924a6.4,6.4,0,0,1-.927,2.1,1.407,1.407,0,0,1-1.743-.307c-4.851-6.821-10.717-12.981-13.754-20.99A2.029,2.029,0,0,1,876,144.8c1.765-.8,1.967-2.32,1.95-4.012-.1-9.417,1.038-18.75,1.9-28.1.168-1.823.492-3.47,1.966-4.693C887.332,109.512,893.223,109.757,898.281,112.837Z" transform="translate(829.193 524.896)" fill="#e5ebf7"/>
      <path id="Path_2524" data-name="Path 2524" d="M875.59,148.013c5.517,6.844,9.6,14.733,15.5,21.3a176.883,176.883,0,0,0,15.5,22.275c2.163,3.618,3.957,7.47,6.784,10.665.615,4.759-2.986,4.282-5.621,4.073-7.376-.584-14.765-1.078-22.12-1.9-8.962-1.005-17.982-.915-26.965-1.577-5.934-.437-11.852-1.092-17.8-1.428-2.653-.149-5.526-.465-7.428-2.893a7.106,7.106,0,0,1-.852-4.186c1.148-12.931,1.368-25.912,2.183-38.859.87-2.111.326-4.686,2.1-6.51,2.772-1.647,5.557-.223,8.357-.2,8.8.08,17.569.614,26.342,1.164C873.251,150.039,874.79,149.787,875.59,148.013Z" transform="translate(830.56 523.636)" fill="#f5f8fd"/>
      <g transform="matrix(1, 0, 0, 1, -33, 452)" filter="url(#Path_2525)">
        <path id="Path_2525-2" data-name="Path 2525" d="M833.911,199.994c6.332,2.847,13.254,2.1,19.841,2.623,6.984.557,14.015,1.334,21.081,1.315,10.714-.027,21.312,1.67,31.958,2.662,2.445.228,5.762,1.554,6.517-2.708l7.74,9.675c3.229,6.8,7.981,12.56,12.6,18.411,1.647,2.628,1.868,4.152-2.183,3.924-5.066-.285-10.163-.039-15.245-.022-3.173,2.292-6.811,1-10.237,1.293-1.747.151-3.519,0-5.276.137-8.362-.073-16.733.485-25.087-.353-8.412-1.519-16.891-.51-25.337-.612-5.111-.062-10.227.235-15.336-.168-3.013-.178-4.56-2.087-4.249-4.784,1.107-9.6.008-19.335,1.914-28.871A4.179,4.179,0,0,1,833.911,199.994Z" transform="translate(863.62 70)" fill="#eff3fc"/>
      </g>
      <path id="Path_2526" data-name="Path 2526" d="M903.007,237.019l15.49.02v.929l0,0c-4.283,2.392-8.849,1.536-13.357,1.09C904.065,238.957,902.951,238.492,903.007,237.019Z" transform="translate(828.342 520.834)" fill="#dddce8"/>
    </g>
    <circle id="Ellipse_58" data-name="Ellipse 58" cx="31.5" cy="31.5" r="31.5" transform="translate(260 3231)" fill="#25b5fa" opacity="0.61"/>
  </g>
</svg>
