<svg xmlns="http://www.w3.org/2000/svg" xmlns:xlink="http://www.w3.org/1999/xlink" width="144.902" height="335.95" viewBox="0 0 144.902 335.95">
  <defs>
    <linearGradient id="linear-gradient" x1="1" y1="0.428" x2="0" y2="0.454" gradientUnits="objectBoundingBox">
      <stop offset="0" stop-color="#16aff8"/>
      <stop offset="1" stop-color="#1d4edf"/>
    </linearGradient>
    <linearGradient id="linear-gradient-2" x1="0.945" y1="0.548" x2="0" y2="0.603" gradientUnits="objectBoundingBox">
      <stop offset="0" stop-color="#2ab6fa"/>
      <stop offset="1" stop-color="#9edcfc"/>
    </linearGradient>
  </defs>
  <g id="Group_1006" data-name="Group 1006" transform="translate(-0.455 -1707.051)">
    <path id="Path_3150" data-name="Path 3150" d="M10561.455-2414a110.445,110.445,0,0,0,11.455-18.3c6.062-11.781,9.778-30.06,9.778-30.06s18.742-54.39,38.39-77.5,48.393-16.484,54.491-14.952c2.866.72,12.582,3.9,18.793,3.743a11.786,11.786,0,0,0,9.562-4.945s15.66-60.664-32.476-106-109.993-32.156-109.993-32.156Z" transform="translate(-10561 4403)" opacity="0.66" fill="url(#linear-gradient)"/>
    <path id="Path_3151" data-name="Path 3151" d="M10561.455-2695.949a110.449,110.449,0,0,1,11.455,18.3c6.062,11.781,9.778,30.06,9.778,30.06s18.742,54.39,38.39,77.5,48.393,16.484,54.491,14.952c2.866-.72,12.582-3.9,18.793-3.743a11.787,11.787,0,0,1,9.562,4.945s15.66,60.664-32.476,106-109.993,32.156-109.993,32.156Z" transform="translate(-10561 4457)" opacity="0.85" fill="url(#linear-gradient-2)"/>
  </g>
</svg>
